<svg xmlns="http://www.w3.org/2000/svg" xmlns:xlink="http://www.w3.org/1999/xlink" width="500" zoomAndPan="magnify" viewBox="0 0 375 374.999991" height="500" preserveAspectRatio="xMidYMid meet" version="1.0"><defs><clipPath id="7a1848a5f3"><path d="M 31 50 L 342 50 L 342 341.25 L 31 341.25 Z M 31 50 " clip-rule="nonzero"/></clipPath><clipPath id="91d64dad38"><path d="M 161 37.5 L 191 37.5 L 191 68 L 161 68 Z M 161 37.5 " clip-rule="nonzero"/></clipPath></defs><rect x="-37.5" width="450" fill="#ffffff" y="-37.499999" height="449.999989" fill-opacity="1"/><rect x="-37.5" width="450" fill="#ffffff" y="-37.499999" height="449.999989" fill-opacity="1"/><g clip-path="url(#7a1848a5f3)"><path fill="#000000" d="M 234.722656 150.441406 C 234.894531 148.886719 235.023438 147.523438 235.175781 146.160156 C 235.761719 141.117188 236.28125 136.074219 237.144531 131.074219 C 237.316406 130.101562 237.316406 130.078125 236.257812 129.839844 C 230.527344 128.585938 224.878906 127.050781 219.210938 125.601562 C 214.84375 124.472656 210.472656 123.304688 206.234375 121.726562 C 205.023438 121.269531 203.855469 120.753906 202.707031 120.125 C 200.914062 119.128906 199.9375 117.613281 199.746094 115.578125 C 199.355469 111.8125 198.988281 108.050781 198.902344 104.261719 C 198.707031 96.320312 199.160156 88.398438 199.917969 80.5 C 200.351562 75.867188 200.71875 71.214844 201.171875 66.585938 C 201.476562 63.597656 202.015625 60.65625 202.511719 57.691406 C 203.117188 53.96875 206.949219 51.4375 209.671875 51.089844 C 211.144531 50.894531 212.613281 50.746094 214.085938 50.875 C 217.570312 51.21875 221.09375 51.132812 224.578125 51.328125 C 230.71875 51.675781 236.777344 52.519531 242.835938 53.492188 C 253.671875 55.222656 264.488281 57.085938 275.347656 58.644531 C 282.65625 59.683594 289.925781 60.871094 297 63.035156 C 298.902344 63.621094 300.804688 64.140625 302.710938 64.660156 C 305.21875 65.328125 307.554688 66.390625 309.695312 67.882812 C 312.164062 69.59375 313.460938 71.84375 313.632812 74.9375 C 313.851562 78.789062 312.8125 82.425781 311.988281 86.082031 C 311.144531 89.871094 309.957031 93.550781 308.570312 97.183594 C 307.101562 101.039062 306.257812 105.0625 305.003906 108.957031 C 303.078125 114.929688 300.871094 120.796875 298.707031 126.683594 C 298.363281 127.632812 298.039062 128.585938 297.667969 129.539062 C 297.34375 130.402344 297 131.246094 296.632812 132.09375 C 295.746094 134.105469 294.359375 135.164062 292.003906 135.402344 C 287.523438 135.855469 283.070312 135.53125 278.589844 135.402344 C 272.730469 135.230469 266.910156 134.472656 261.089844 133.78125 C 259.859375 133.628906 259.878906 133.628906 259.75 134.796875 C 259.058594 140.898438 258.539062 147.003906 257.714844 153.082031 C 257.585938 154.101562 257.585938 154.121094 258.691406 154.1875 C 262.152344 154.339844 265.589844 154.511719 269.050781 154.621094 C 276.945312 154.859375 284.800781 155.378906 292.652344 156.242188 C 294.621094 156.460938 296.609375 156.4375 298.601562 156.503906 C 303.273438 156.652344 307.859375 157.585938 312.488281 157.953125 C 315.449219 158.191406 318.347656 158.601562 321.203125 159.402344 C 325.855469 160.746094 330.179688 162.757812 333.878906 165.960938 C 334.398438 166.414062 334.941406 166.867188 335.351562 167.410156 C 337.558594 170.417969 339.203125 173.683594 339.851562 177.40625 C 341.992188 190.066406 341.691406 202.769531 340.738281 215.496094 C 340.390625 220.234375 339.460938 224.910156 339.179688 229.648438 C 338.726562 237.15625 337.753906 244.625 336.929688 252.089844 C 336.390625 257.089844 335.914062 262.089844 335.742188 267.128906 C 335.480469 274.335938 334.679688 281.476562 333.664062 288.597656 C 333.230469 291.605469 333.015625 294.65625 332.667969 297.664062 C 332.300781 300.78125 331.738281 303.875 331.003906 306.925781 C 329.945312 311.277344 328.667969 315.5625 327.304688 319.824219 C 325.878906 324.242188 323.734375 328.332031 320.859375 331.988281 C 317.269531 336.53125 312.683594 339.539062 307.035156 340.839844 C 305.328125 341.226562 303.554688 341.25 301.800781 341.164062 C 298.859375 341.035156 295.894531 340.882812 292.953125 340.773438 C 279.132812 340.234375 265.308594 339.582031 251.488281 338.871094 C 242.097656 338.371094 232.6875 337.917969 223.300781 337.375 C 211.921875 336.726562 200.566406 336.011719 189.1875 335.277344 C 182.742188 334.867188 176.316406 334.238281 169.871094 333.914062 C 165.871094 333.699219 161.847656 333.632812 157.84375 333.480469 C 147.289062 333.070312 136.753906 332.59375 126.21875 331.792969 C 117.351562 331.121094 108.523438 329.976562 99.722656 328.675781 C 96.304688 328.179688 92.863281 327.832031 89.425781 327.488281 C 83.910156 326.945312 78.4375 326.144531 72.964844 325.410156 C 68.765625 324.847656 64.546875 324.371094 60.351562 323.828125 C 58.621094 323.613281 56.847656 323.460938 55.183594 322.964844 C 51.960938 322.011719 48.605469 321.601562 45.40625 320.582031 C 42.074219 319.542969 39.195312 317.792969 36.601562 315.519531 C 34.070312 313.289062 32.773438 310.390625 32.125 307.144531 C 31.667969 304.871094 31.519531 302.578125 31.519531 300.261719 C 31.519531 297.945312 31.539062 293.707031 31.691406 290.4375 C 31.800781 287.992188 31.710938 285.546875 31.667969 283.101562 C 31.429688 271.804688 31.0625 260.488281 31.667969 249.191406 C 32.316406 236.941406 32.1875 224.648438 32.96875 212.402344 C 33.3125 206.839844 33.746094 201.253906 34.15625 195.695312 C 34.328125 193.398438 34.371094 191.085938 34.308594 188.769531 C 34.179688 182.015625 34.652344 175.308594 35.324219 168.601562 C 35.628906 165.570312 35.886719 162.539062 36.535156 159.554688 C 37.292969 156.070312 38.675781 152.886719 41.035156 150.183594 C 41.425781 149.730469 41.8125 149.273438 42.160156 148.777344 C 43.824219 146.484375 46.054688 144.882812 48.605469 143.710938 C 52.5 141.9375 56.609375 140.941406 60.871094 140.53125 C 62.386719 140.378906 63.898438 140.292969 65.4375 140.230469 C 66.105469 140.230469 66.453125 140.035156 66.410156 139.277344 C 66.234375 135.8125 66.710938 132.375 66.949219 128.910156 C 67.078125 126.898438 68.160156 125.578125 69.976562 124.820312 C 71.40625 124.234375 72.921875 124.0625 74.433594 123.910156 C 77.699219 123.609375 80.988281 123.738281 84.253906 124.019531 C 90.226562 124.539062 96.195312 125.125 102.144531 125.859375 C 103.9375 126.074219 105.714844 126.378906 107.421875 126.960938 C 109.648438 127.71875 110.300781 128.671875 110.492188 130.988281 C 110.816406 134.820312 110.710938 138.628906 110.234375 142.457031 C 110.105469 143.453125 110.148438 143.496094 111.097656 143.582031 C 117.027344 144.101562 122.933594 144.707031 128.835938 145.464844 C 130.652344 145.703125 132.515625 145.789062 134.351562 145.746094 C 136.820312 145.703125 139.070312 144.902344 140.972656 143.300781 C 141.925781 142.5 142.8125 141.636719 143.699219 140.75 C 145.796875 138.605469 148.089844 136.65625 150.382812 134.730469 C 153.109375 132.417969 156.222656 131.355469 159.792969 131.335938 C 164.59375 131.335938 169.394531 131.550781 174.15625 132.113281 C 183.261719 133.195312 192.367188 134.386719 201.476562 135.46875 C 205.410156 135.945312 209.347656 136.417969 213.328125 136.484375 C 216.8125 136.550781 220.164062 137.480469 223.515625 138.300781 C 225.246094 138.714844 226.460938 139.96875 227.539062 141.332031 C 229.054688 143.257812 230.351562 145.3125 231.609375 147.433594 C 232.257812 148.515625 233.015625 149.492188 234.117188 150.140625 C 234.269531 150.226562 234.441406 150.292969 234.832031 150.464844 L 234.722656 150.464844 Z M 187.933594 328.546875 C 188.582031 328.589844 189.210938 328.675781 189.859375 328.699219 C 195.050781 329.023438 200.265625 329.304688 205.457031 329.652344 C 212.765625 330.125 220.078125 330.601562 227.410156 331.121094 C 235.976562 331.726562 244.523438 332.335938 253.066406 332.984375 C 259.683594 333.480469 266.304688 333.957031 272.921875 334.542969 C 277.941406 334.996094 282.960938 335.0625 287.957031 334.367188 C 292.433594 333.742188 296.480469 332.160156 300.050781 329.324219 C 301.910156 327.855469 303.292969 326.101562 304.160156 323.894531 C 305.371094 320.800781 306.320312 317.617188 307.144531 314.394531 C 310.84375 299.589844 312.984375 284.53125 314.605469 269.382812 C 315.40625 261.851562 316.035156 254.320312 316.445312 246.765625 C 316.855469 238.890625 317.484375 231.035156 317.765625 223.132812 C 318.023438 215.710938 318.089844 208.289062 318.523438 200.867188 C 318.609375 199.394531 318.523438 197.921875 318.414062 196.453125 C 318.132812 192.859375 317.875 189.265625 317.375 185.71875 C 316.835938 181.691406 316.078125 177.710938 314.671875 173.878906 C 313.265625 170.027344 310.714844 167.429688 306.882812 166.003906 C 304.765625 165.203125 302.558594 164.726562 300.351562 164.226562 C 296.394531 163.339844 292.414062 162.625 288.324219 162.582031 C 284.777344 162.539062 281.230469 162.257812 277.683594 162.019531 C 270.21875 161.523438 262.777344 160.980469 255.316406 160.460938 C 250.988281 160.160156 246.664062 159.964844 242.359375 159.425781 C 238.378906 158.90625 234.59375 157.867188 231.066406 155.898438 C 228.839844 154.664062 227 153.039062 225.636719 150.898438 C 224.945312 149.816406 224.230469 148.734375 223.472656 147.671875 C 222.066406 145.726562 220.273438 144.296875 217.851562 143.714844 C 212.746094 142.457031 207.574219 141.484375 202.363281 140.855469 C 199.441406 140.511719 196.476562 140.421875 193.535156 140.207031 C 185.164062 139.578125 176.816406 138.820312 168.421875 138.476562 C 165.480469 138.347656 162.515625 138.367188 159.574219 138.433594 C 157.605469 138.476562 155.917969 139.101562 154.40625 140.421875 C 152.523438 142.066406 150.621094 143.667969 148.824219 145.402344 C 147.894531 146.289062 146.941406 147.175781 145.949219 147.996094 C 142.488281 150.875 138.507812 151.828125 134.050781 151.332031 C 129.660156 150.832031 125.246094 150.292969 120.832031 150.117188 C 107.617188 149.554688 94.398438 148.582031 81.183594 147.953125 C 74.542969 147.628906 67.902344 147.457031 61.304688 148.386719 C 58.144531 148.820312 55.03125 149.46875 52.046875 150.636719 C 50.488281 151.242188 48.996094 151.957031 47.828125 153.214844 C 45.273438 155.960938 43.328125 159.054688 42.355469 162.691406 C 41.25 166.78125 41.035156 170.980469 40.839844 175.15625 C 40.796875 175.871094 41.164062 175.980469 41.75 176 C 48.28125 176.28125 54.835938 176.542969 61.367188 176.867188 C 69.003906 177.234375 76.664062 177.644531 84.296875 178.078125 C 92.820312 178.578125 101.320312 179.09375 109.824219 179.894531 C 114.558594 180.328125 119.320312 180.089844 124.054688 180.199219 C 124.75 180.199219 125.289062 179.941406 125.851562 179.613281 C 130.179688 177.105469 134.699219 175.027344 139.414062 173.402344 C 150.921875 169.421875 162.710938 167.863281 174.824219 169.402344 C 178.15625 169.8125 181.464844 170.527344 184.796875 170.980469 C 195.632812 172.472656 205.910156 175.71875 215.621094 180.761719 C 228.429688 187.40625 239.15625 196.429688 247.203125 208.484375 C 252.289062 216.078125 255.964844 224.28125 257.695312 233.304688 C 258.300781 236.445312 258.300781 239.625 258.539062 242.804688 C 259.101562 250.511719 258.582031 258.085938 257.003906 265.636719 C 254.253906 278.945312 248.351562 290.566406 239.046875 300.480469 C 233.058594 306.863281 226.089844 311.992188 218.347656 316.039062 C 209.910156 320.453125 201.214844 324.261719 192.066406 326.878906 C 190.617188 327.292969 189.1875 327.746094 187.867188 328.589844 Z M 117.265625 185.175781 C 116.789062 184.960938 116.355469 185.003906 115.945312 184.980469 C 113.414062 184.851562 110.882812 184.832031 108.351562 184.613281 C 105.777344 184.375 103.203125 184.09375 100.628906 183.988281 C 91.003906 183.597656 81.355469 183.316406 71.730469 182.925781 C 62.148438 182.535156 52.566406 182.058594 42.980469 181.585938 C 40.515625 181.476562 40.496094 181.433594 40.453125 183.964844 C 40.363281 188.855469 40.320312 193.746094 40.257812 198.617188 C 40.257812 199.632812 40.171875 200.648438 40.148438 201.667969 C 39.976562 209.824219 39.78125 218.003906 39.328125 226.144531 C 38.957031 233.089844 38.589844 240.058594 38.613281 247.027344 C 38.632812 262.890625 38.765625 278.773438 38.136719 294.636719 C 37.984375 298.507812 38.222656 302.382812 39.21875 306.171875 C 40.191406 309.828125 42.226562 312.53125 45.730469 314.089844 C 47.589844 314.914062 49.515625 315.585938 51.484375 316.058594 C 60.503906 318.203125 69.546875 320.238281 78.78125 321.144531 C 85.488281 321.792969 92.171875 322.445312 98.898438 323.027344 C 104.089844 323.484375 109.261719 324.023438 114.453125 324.585938 C 119.535156 325.128906 124.617188 325.753906 129.703125 326.273438 C 134.351562 326.75 139.003906 326.511719 143.675781 326.640625 C 143.804688 326.640625 143.9375 326.640625 144.023438 326.382812 C 143.4375 326.1875 142.832031 325.992188 142.25 325.796875 C 108.375 315.019531 88.34375 285.222656 85.660156 256.527344 C 84.277344 241.660156 86.675781 227.460938 93.230469 214.023438 C 98.640625 202.945312 106.449219 193.855469 116.097656 186.28125 C 116.484375 185.976562 116.960938 185.738281 117.285156 185.15625 L 117.265625 185.15625 Z M 239.589844 252.632812 C 239.589844 247.976562 239.351562 244.625 238.832031 241.292969 C 235.78125 221.835938 226.675781 205.714844 211.273438 193.550781 C 193.339844 179.398438 172.707031 174.53125 150.230469 178.058594 C 137.53125 180.046875 126.089844 185.285156 116.464844 193.875 C 101.257812 207.464844 93.144531 224.691406 91.933594 245.011719 C 91.027344 260.117188 94.488281 274.359375 102.511719 287.167969 C 117.070312 310.390625 138.527344 321.839844 165.675781 322.941406 C 174.304688 323.289062 182.613281 321.40625 190.746094 318.59375 C 207.554688 312.726562 220.664062 302.210938 229.8125 286.976562 C 236.367188 276.089844 239.460938 264.101562 239.609375 252.652344 Z M 207.359375 87.164062 L 207.359375 91.449219 C 207.292969 98.375 207.207031 105.277344 207.121094 112.203125 C 207.121094 113.957031 208.527344 115.753906 210.324219 116.1875 C 218.023438 118.070312 225.703125 119.953125 233.46875 121.640625 C 237.425781 122.503906 241.363281 123.523438 245.34375 124.214844 C 252.523438 125.425781 259.75 126.355469 266.976562 127.222656 C 273.421875 127.980469 279.890625 128.609375 286.378906 129.105469 C 287.046875 129.148438 287.65625 129.039062 288.238281 128.738281 C 289.925781 127.914062 290.941406 126.53125 291.527344 124.820312 C 293.410156 119.324219 295.355469 113.847656 297.085938 108.308594 C 299.292969 101.167969 301.410156 94.027344 303.53125 86.863281 C 304.546875 83.398438 304.09375 79.914062 302.710938 76.582031 C 302.429688 75.890625 302.039062 75.242188 301.367188 74.875 C 299.488281 73.8125 297.605469 72.601562 295.484375 72.148438 C 291.160156 71.214844 286.960938 69.746094 282.550781 69.246094 C 281.402344 69.117188 280.257812 68.945312 279.132812 68.75 C 273.011719 67.6875 266.886719 66.605469 260.746094 65.546875 C 252.761719 64.183594 244.757812 62.863281 236.753906 61.457031 C 230.765625 60.417969 224.792969 59.269531 218.800781 58.253906 C 216.292969 57.820312 213.738281 57.929688 211.253906 58.601562 C 209.109375 59.164062 208.375 60.136719 208.246094 62.300781 C 208.246094 62.667969 208.203125 63.035156 208.179688 63.402344 C 207.855469 71.324219 207.511719 79.246094 207.335938 87.1875 L 207.359375 87.1875 Z M 322.503906 168.644531 C 322.285156 168.925781 322.414062 169.074219 322.503906 169.226562 C 323.734375 171.476562 324.472656 173.902344 324.96875 176.390625 C 326.222656 182.625 326.589844 188.921875 326.503906 195.238281 C 326.460938 198.746094 326.113281 202.230469 325.964844 205.734375 C 325.746094 210.667969 325.574219 215.605469 325.316406 220.539062 C 324.925781 228.089844 324.339844 235.644531 324.058594 243.195312 C 323.820312 249.925781 323.109375 256.632812 322.132812 263.300781 C 321.679688 266.4375 321.054688 269.574219 320.773438 272.734375 C 320.230469 278.425781 319.777344 284.117188 319.0625 289.808594 C 318.066406 297.773438 316.964844 305.714844 315.40625 313.59375 C 314.5 318.160156 313.375 322.683594 311.515625 326.988281 C 310.195312 330.039062 308.355469 332.722656 305.542969 334.605469 C 305.390625 334.714844 305.285156 334.84375 305.132812 334.996094 C 305.261719 335.039062 305.347656 335.105469 305.414062 335.105469 C 305.671875 335.0625 305.953125 334.972656 306.214844 334.910156 C 312.355469 333.265625 316.878906 329.457031 319.886719 324.003906 C 322.285156 319.675781 323.84375 314.957031 324.839844 310.109375 C 325.683594 305.996094 326.203125 301.820312 326.65625 297.644531 C 327.21875 292.277344 327.976562 286.929688 327.933594 281.519531 C 327.933594 279.726562 328.125 277.929688 328.300781 276.132812 C 328.6875 271.914062 329.121094 267.691406 329.511719 263.453125 C 330.226562 255.597656 330.917969 247.738281 331.609375 239.882812 C 332.238281 232.722656 333.015625 225.558594 333.511719 218.375 C 333.988281 211.46875 334.355469 204.566406 334.746094 197.664062 C 334.875 195.5 335.046875 193.3125 334.746094 191.171875 C 334.160156 187.296875 333.210938 183.488281 331.78125 179.808594 C 330.851562 177.386719 329.664062 175.113281 328.039062 173.058594 C 326.527344 171.152344 324.578125 169.8125 322.523438 168.621094 Z M 223.710938 194.65625 L 223.5625 194.871094 C 224.101562 195.5 224.640625 196.125 225.183594 196.734375 C 228.429688 200.476562 231.347656 204.4375 233.75 208.765625 C 244.328125 227.765625 246.878906 247.890625 241.949219 268.96875 C 239.265625 280.460938 233.921875 290.71875 226.761719 300.046875 C 226.480469 300.414062 226.089844 300.71875 225.984375 301.300781 C 226.199219 301.191406 226.285156 301.171875 226.351562 301.128906 C 226.566406 300.976562 226.804688 300.804688 227.023438 300.628906 C 232.949219 296 237.792969 290.4375 241.535156 283.921875 C 248.738281 271.328125 251.421875 257.738281 250.535156 243.347656 C 250.425781 241.679688 250.363281 240.035156 250.015625 238.390625 C 246.425781 221.578125 237.988281 207.597656 225.378906 196.0625 C 224.835938 195.5625 224.273438 195.109375 223.734375 194.632812 Z M 82.371094 129.539062 C 79.539062 129.539062 76.359375 129.667969 73.222656 130.1875 C 71.644531 130.445312 71.492188 130.621094 71.320312 132.222656 C 71.082031 134.472656 70.910156 136.722656 70.671875 138.953125 C 70.539062 140.164062 70.539062 140.183594 71.75 140.230469 C 80.730469 140.488281 89.664062 141.398438 98.597656 142.394531 C 100.390625 142.585938 102.164062 142.738281 103.960938 142.933594 C 104.4375 142.976562 104.761719 142.933594 104.78125 142.328125 C 104.871094 140.207031 105.238281 138.109375 105.085938 135.988281 C 105.019531 135.011719 104.914062 134.0625 104.566406 133.152344 C 104.046875 131.808594 103.183594 130.945312 101.601562 130.902344 C 99.765625 130.835938 97.925781 130.597656 96.085938 130.425781 C 91.632812 130.035156 87.175781 129.667969 82.371094 129.539062 Z M 248.695312 153.796875 C 249.929688 153.863281 249.949219 153.863281 250.125 152.886719 C 251.25 146.503906 252.027344 140.035156 253.457031 133.691406 C 253.605469 133.042969 253.410156 132.785156 252.742188 132.675781 C 249.90625 132.265625 247.09375 131.808594 244.285156 131.398438 C 243.417969 131.269531 243.375 131.355469 243.289062 132.242188 C 243.09375 134.300781 242.941406 136.375 242.703125 138.433594 C 242.183594 142.957031 241.386719 147.457031 240.28125 151.871094 C 240.128906 152.5 240.367188 152.695312 240.910156 152.800781 C 243.527344 153.34375 246.1875 153.539062 248.71875 153.796875 Z M 248.695312 153.796875 " fill-opacity="1" fill-rule="nonzero"/></g><g clip-path="url(#91d64dad38)"><path fill="#000000" d="M 190.441406 65.65625 C 190.441406 66.585938 189.835938 67.191406 188.90625 67.257812 C 188.28125 67.300781 187.738281 67.082031 187.175781 66.84375 C 184.363281 65.613281 181.789062 64.011719 179.476562 62.019531 C 173.074219 56.523438 167.644531 50.160156 162.886719 43.214844 C 162.34375 42.414062 161.867188 41.570312 161.523438 40.660156 C 161.304688 40.097656 161.152344 39.511719 161.242188 38.90625 C 161.347656 38.0625 161.867188 37.609375 162.710938 37.542969 C 163.273438 37.5 163.816406 37.671875 164.3125 37.910156 C 165.328125 38.367188 166.238281 38.972656 167.144531 39.621094 C 168.53125 40.617188 169.828125 41.71875 171.082031 42.867188 C 176.46875 47.78125 181.507812 53.015625 186.117188 58.664062 C 187.480469 60.351562 188.710938 62.128906 189.859375 63.964844 C 190.183594 64.484375 190.464844 65.003906 190.421875 65.632812 Z M 190.441406 65.65625 " fill-opacity="1" fill-rule="nonzero"/></g><path fill="#000000" d="M 329.726562 88.722656 C 329.597656 88.722656 329.402344 88.722656 329.230469 88.679688 C 328.429688 88.550781 327.628906 88.378906 327.390625 87.445312 C 327.175781 86.582031 327.78125 86.082031 328.386719 85.628906 C 328.90625 85.238281 329.425781 84.871094 329.964844 84.527344 C 335.699219 80.890625 341.496094 77.40625 347.488281 74.222656 C 348.460938 73.703125 349.457031 73.1875 350.492188 72.839844 C 351.335938 72.558594 352.179688 72.386719 353.066406 72.601562 C 355.121094 73.078125 356.117188 75.046875 355.316406 76.996094 C 354.972656 77.839844 354.386719 78.464844 353.695312 79.027344 C 352.828125 79.722656 351.878906 80.285156 350.882812 80.78125 C 345.800781 83.421875 340.566406 85.671875 335.136719 87.535156 C 333.382812 88.140625 331.609375 88.570312 329.707031 88.722656 Z M 329.726562 88.722656 " fill-opacity="1" fill-rule="nonzero"/><path fill="#000000" d="M 353.023438 246.570312 C 353.109375 243.824219 354.171875 241.617188 356.398438 240.035156 C 359.96875 237.527344 364.8125 238.867188 366.695312 242.828125 C 368.425781 246.484375 367.085938 250.964844 363.582031 252.933594 C 361.289062 254.230469 358.90625 254.320312 356.59375 253 C 354.148438 251.59375 353.089844 249.320312 353.023438 246.570312 Z M 353.023438 246.570312 " fill-opacity="1" fill-rule="nonzero"/><path fill="#000000" d="M 175.539062 88.507812 C 173.117188 88.378906 170.800781 87.773438 168.53125 87.015625 C 162.582031 85 156.851562 82.449219 151.3125 79.527344 C 150.382812 79.027344 149.453125 78.488281 148.652344 77.773438 C 148.089844 77.277344 147.570312 76.691406 147.851562 75.867188 C 148.109375 75.046875 148.824219 74.808594 149.582031 74.699219 C 150.878906 74.527344 152.175781 74.742188 153.410156 75.046875 C 159.640625 76.496094 165.589844 78.660156 171.257812 81.648438 C 173.222656 82.6875 175.0625 83.917969 176.597656 85.5625 C 176.730469 85.695312 176.859375 85.824219 176.96875 85.976562 C 177.441406 86.496094 177.917969 87.058594 177.59375 87.816406 C 177.246094 88.617188 176.511719 88.550781 175.796875 88.527344 L 175.515625 88.527344 Z M 175.539062 88.507812 " fill-opacity="1" fill-rule="nonzero"/><path fill="#000000" d="M 162.648438 115.449219 C 160.117188 115.40625 158.039062 114.628906 156.351562 112.984375 C 154.664062 111.316406 153.820312 109.304688 154.664062 106.96875 C 155.53125 104.609375 157.324219 103.222656 159.8125 102.898438 C 162.472656 102.550781 164.851562 103.308594 166.863281 105.0625 C 168.703125 106.664062 169.613281 108.699219 168.964844 111.121094 C 168.292969 113.609375 166.410156 114.84375 163.988281 115.34375 C 163.492188 115.449219 162.972656 115.429688 162.648438 115.472656 Z M 162.648438 115.449219 " fill-opacity="1" fill-rule="nonzero"/><path fill="#000000" d="M 19.015625 135.835938 C 19.121094 133.304688 19.988281 131.335938 22.152344 130.1875 C 24.3125 129.019531 26.457031 129.386719 28.445312 130.683594 C 31.324219 132.546875 32.492188 136.464844 31.171875 139.621094 C 29.832031 142.867188 26.261719 144.230469 23.125 142.585938 C 20.378906 141.136719 19.167969 138.714844 19.015625 135.855469 Z M 19.015625 135.835938 " fill-opacity="1" fill-rule="nonzero"/><path fill="#000000" d="M 331.976562 108.980469 C 335.480469 109.195312 339.441406 109.414062 343.375 109.84375 C 344.285156 109.953125 345.195312 110.125 346.058594 110.429688 C 346.707031 110.667969 347.335938 110.96875 347.832031 111.46875 C 349.304688 112.875 348.980469 114.777344 347.117188 115.601562 C 346.082031 116.054688 344.976562 116.164062 343.875 116.078125 C 339.117188 115.710938 334.507812 114.671875 330.074219 112.875 C 329.144531 112.484375 328.214844 112.03125 327.5 111.296875 C 327.109375 110.90625 326.742188 110.449219 326.914062 109.824219 C 327.132812 109.132812 327.738281 108.980469 328.34375 108.957031 C 329.402344 108.957031 330.460938 108.957031 331.957031 108.957031 L 331.976562 108.957031 Z M 331.976562 108.980469 " fill-opacity="1" fill-rule="nonzero"/><path fill="#000000" d="M 95.980469 56.089844 C 96.324219 56.15625 96.953125 56.21875 97.601562 56.347656 C 99.503906 56.71875 100.738281 57.863281 101.234375 59.703125 C 101.777344 61.738281 101.300781 63.554688 99.742188 64.984375 C 98.273438 66.304688 96.542969 66.5 94.722656 65.785156 C 92.476562 64.875 91.027344 62.453125 91.242188 60.050781 C 91.457031 57.667969 93.320312 56.003906 96 56.089844 Z M 95.980469 56.089844 " fill-opacity="1" fill-rule="nonzero"/><path fill="#000000" d="M 123.667969 93.441406 C 123.710938 96.621094 121.246094 99.328125 118.390625 99.566406 C 115.511719 99.804688 113.15625 96.992188 113.867188 94.199219 C 114.605469 91.300781 116.875 89.351562 119.839844 89.046875 C 120.269531 89.003906 120.660156 89.113281 121.027344 89.351562 C 122.695312 90.347656 123.582031 91.820312 123.667969 93.441406 Z M 123.667969 93.441406 " fill-opacity="1" fill-rule="nonzero"/><path fill="#000000" d="M 10.253906 174.636719 C 11.941406 174.636719 13.886719 175.914062 14.492188 177.449219 C 15.097656 178.988281 14.644531 180.632812 13.238281 181.910156 C 12.71875 182.363281 12.199219 182.839844 11.636719 183.207031 C 9.410156 184.613281 6.769531 183.660156 5.949219 181.195312 C 4.890625 178.078125 7.140625 174.660156 10.253906 174.617188 Z M 10.253906 174.636719 " fill-opacity="1" fill-rule="nonzero"/><path fill="#000000" d="M 12.222656 266.957031 C 13.800781 266.957031 15.097656 267.910156 15.640625 269.488281 C 15.8125 270.007812 15.898438 270.550781 16.160156 271.070312 C 16.875 272.582031 16.546875 273.96875 15.445312 275.136719 C 14.300781 276.347656 12.828125 276.695312 11.269531 276.132812 C 9.453125 275.460938 8.523438 273.992188 8.328125 272.128906 C 8.113281 270.269531 8.695312 268.667969 10.296875 267.542969 C 10.882812 267.128906 11.550781 266.957031 12.265625 266.957031 Z M 12.222656 266.957031 " fill-opacity="1" fill-rule="nonzero"/><path fill="#000000" d="M 354.0625 149.425781 C 355.230469 149.46875 356.570312 150.011719 357.546875 151.242188 C 358.5625 152.542969 358.671875 154.273438 357.847656 155.636719 C 357.027344 157.023438 355.445312 157.714844 353.671875 157.410156 C 352.636719 157.214844 351.640625 156.847656 350.710938 156.308594 C 348.613281 155.074219 348.332031 152.519531 350.0625 150.8125 C 350.949219 149.925781 352.289062 149.40625 354.0625 149.425781 Z M 354.0625 149.425781 " fill-opacity="1" fill-rule="nonzero"/><path fill="#000000" d="M 364.488281 197.273438 C 368.015625 197.273438 369.917969 200 368.835938 202.878906 C 368.382812 204.089844 367.625 205.042969 366.457031 205.648438 C 364.574219 206.644531 362.5 205.972656 361.570312 204.046875 C 361.246094 203.375 360.941406 202.707031 360.703125 202.035156 C 360.269531 200.84375 360.574219 199.761719 361.375 198.832031 C 362.304688 197.773438 363.539062 197.316406 364.46875 197.296875 Z M 364.488281 197.273438 " fill-opacity="1" fill-rule="nonzero"/><path fill="#000000" d="M 317.960938 141.375 C 316.574219 141.441406 315.472656 141.050781 314.910156 139.796875 C 314.347656 138.539062 314.757812 137.4375 315.625 136.507812 C 316.707031 135.316406 318.066406 134.730469 319.710938 134.949219 C 320.964844 135.101562 321.855469 135.792969 322.242188 136.984375 C 322.652344 138.195312 322.285156 139.253906 321.398438 140.140625 C 320.511719 141.03125 319.171875 141.355469 317.9375 141.375 Z M 317.960938 141.375 " fill-opacity="1" fill-rule="nonzero"/><path fill="#000000" d="M 64.699219 87.835938 C 64.742188 89.804688 63.316406 91.472656 61.542969 91.515625 C 59.421875 91.582031 57.605469 89.957031 57.582031 87.945312 C 57.5625 85.996094 59.074219 84.589844 61.175781 84.589844 C 63.273438 84.589844 64.679688 85.933594 64.699219 87.835938 Z M 64.699219 87.835938 " fill-opacity="1" fill-rule="nonzero"/><path fill="#000000" d="M 286.679688 212.03125 C 277.011719 212.03125 271.84375 203.246094 271.949219 197.121094 C 272.078125 189.308594 278.351562 183.054688 286.25 183.054688 C 294.144531 183.054688 301.175781 189.722656 301.195312 197.878906 C 301.195312 205.757812 294.769531 212.03125 286.703125 212.03125 Z M 276.96875 197.921875 C 276.96875 202.964844 280.863281 206.753906 285.988281 206.773438 C 291.222656 206.773438 295.375 202.425781 295.332031 196.992188 C 295.289062 192.035156 291.351562 188.140625 286.398438 188.183594 C 281.1875 188.183594 276.945312 192.578125 276.96875 197.945312 Z M 276.96875 197.921875 " fill-opacity="1" fill-rule="nonzero"/><path fill="#000000" d="M 165.4375 307.726562 C 135.628906 307.816406 111.011719 286.886719 106.601562 258.019531 C 104.175781 242.046875 107.875 227.527344 117.71875 214.628906 C 122.433594 208.460938 127.90625 203.09375 134.527344 198.960938 C 154.339844 186.625 178.980469 187.210938 198.445312 200.757812 C 212.722656 210.691406 221.117188 224.410156 223.453125 241.636719 C 225.054688 253.34375 222.71875 264.46875 217.632812 275.09375 C 209.585938 291.886719 191.460938 305.195312 171.949219 307.296875 C 169.570312 307.554688 167.167969 307.707031 165.414062 307.75 L 165.4375 307.75 Z M 165.738281 300.671875 C 171.539062 300.671875 177.292969 299.65625 182.980469 297.753906 C 201.996094 291.433594 215.664062 273.601562 217.351562 254.816406 C 219.0625 235.859375 210.777344 217.398438 194.421875 206.515625 C 179.5625 196.644531 159.554688 195.066406 142.8125 202.511719 C 135.261719 205.867188 128.535156 210.429688 123.6875 217.160156 C 112.785156 232.308594 109.996094 248.929688 116.378906 266.609375 C 123.710938 286.910156 143.890625 300.628906 165.738281 300.671875 Z M 165.738281 300.671875 " fill-opacity="1" fill-rule="nonzero"/><path fill="#000000" d="M 270.15625 82.230469 C 271.648438 82.253906 272.449219 83.269531 272.144531 84.699219 C 271.949219 85.628906 271.453125 86.40625 270.847656 87.121094 C 269.917969 88.226562 268.835938 89.15625 267.710938 90.042969 C 265.246094 91.992188 262.648438 93.746094 260.03125 95.453125 C 254.363281 99.15625 248.632812 102.769531 242.726562 106.101562 C 242.574219 106.1875 242.402344 106.273438 242.25 106.382812 C 241.710938 106.6875 241.125 106.96875 240.628906 106.382812 C 240.195312 105.863281 240.367188 105.257812 240.691406 104.695312 C 241.210938 103.808594 241.949219 103.113281 242.703125 102.421875 C 244.867188 100.429688 247.183594 98.59375 249.539062 96.796875 C 254.625 92.902344 259.726562 89.027344 264.726562 85 C 265.613281 84.289062 266.542969 83.59375 267.558594 83.011719 C 268.382812 82.554688 269.222656 82.253906 270.175781 82.210938 Z M 270.15625 82.230469 " fill-opacity="1" fill-rule="nonzero"/><path fill="#000000" d="M 241.816406 83.617188 C 241.816406 84.050781 241.621094 84.417969 241.429688 84.785156 C 237.792969 91.105469 233.511719 96.882812 227.910156 101.601562 C 227.410156 102.011719 226.871094 102.378906 226.351562 102.726562 C 226.070312 102.921875 225.746094 102.941406 225.464844 102.683594 C 225.183594 102.445312 225.160156 102.121094 225.269531 101.792969 C 225.398438 101.449219 225.550781 101.101562 225.746094 100.800781 C 229.8125 94.695312 234.050781 88.746094 239.503906 83.746094 C 239.871094 83.398438 240.238281 83.03125 240.734375 82.859375 C 241.429688 82.621094 241.839844 82.878906 241.839844 83.59375 Z M 241.816406 83.617188 " fill-opacity="1" fill-rule="nonzero"/><path fill="#000000" d="M 130.871094 247.089844 C 130.914062 232.441406 140.429688 219.066406 153.996094 214.347656 C 155.660156 213.765625 157.347656 213.332031 159.097656 213.222656 C 160.355469 213.136719 161.585938 213.222656 162.753906 213.785156 C 164.269531 214.476562 164.527344 215.796875 163.425781 217.03125 C 162.734375 217.789062 161.890625 218.351562 160.9375 218.742188 C 159.964844 219.152344 158.96875 219.542969 157.972656 219.910156 C 146.617188 223.980469 140.042969 232.246094 137.230469 243.738281 C 135.996094 248.820312 136.191406 253.996094 136.796875 259.144531 C 136.882812 259.925781 136.949219 260.703125 136.992188 261.480469 C 136.992188 261.808594 137.035156 262.152344 136.667969 262.324219 C 136.277344 262.5 135.953125 262.324219 135.671875 262.066406 C 134.828125 261.332031 134.203125 260.421875 133.683594 259.425781 C 132.320312 256.828125 131.539062 254.039062 131.152344 251.136719 C 130.957031 249.730469 130.828125 248.304688 130.871094 247.089844 Z M 130.871094 247.089844 " fill-opacity="1" fill-rule="nonzero"/></svg>