<?xml version="1.0" encoding="utf-8"?>
<svg version="1.1" id="svg1" width="666.66669" height="666.66669" xmlns="http://www.w3.org/2000/svg">
  <defs id="defs1">
    <clipPath clipPathUnits="userSpaceOnUse" id="clipPath5">
      <path d="M -34.681 299.35 L 631.986 299.35 L 631.986 -367.31 L -34.681 -367.31 L -34.681 299.35 Z" id="path5" style="stroke-width: 1.333;"/>
    </clipPath>
    <clipPath clipPathUnits="userSpaceOnUse" id="clipPath7">
      <path d="M -34.681 498.73 L 631.987 498.73 L 631.987 -167.94 L -34.681 -167.94 L -34.681 498.73 Z" id="path7" style="stroke-width: 1.333;"/>
    </clipPath>
    <clipPath clipPathUnits="userSpaceOnUse" id="clipPath9">
      <path d="M -35.618 494.256 L 631.049 494.256 L 631.049 -172.41 L -35.618 -172.41 L -35.618 494.256 Z" id="path9" style="stroke-width: 1.333;"/>
    </clipPath>
    <clipPath clipPathUnits="userSpaceOnUse" id="clipPath15">
      <path d="M -34.686 287.501 L 631.994 287.501 L 631.994 -379.16 L -34.686 -379.16 L -34.686 287.501 Z" id="path15" style="stroke-width: 1.333;"/>
    </clipPath>
    <clipPath clipPathUnits="userSpaceOnUse" id="clipPath17">
      <path d="M -34.678 287.346 L 631.979 287.346 L 631.979 -379.31 L -34.678 -379.31 L -34.678 287.346 Z" id="path17" style="stroke-width: 1.333;"/>
    </clipPath>
    <clipPath clipPathUnits="userSpaceOnUse" id="clipPath19">
      <path d="M -34.694 301.076 L 632.011 301.076 L 632.011 -365.63 L -34.694 -365.63 L -34.694 301.076 Z" id="path19" style="stroke-width: 1.333;"/>
    </clipPath>
    <clipPath clipPathUnits="userSpaceOnUse" id="clipPath21">
      <path d="M -0.001 294.234 L 666.668 294.234 L 666.668 -372.43 L -0.001 -372.43 L -0.001 294.234 Z" id="path21" style="stroke-width: 1.333;"/>
    </clipPath>
    <clipPath clipPathUnits="userSpaceOnUse" id="clipPath23">
      <path d="M -34.681 309.047 L 631.987 309.047 L 631.987 -357.62 L -34.681 -357.62 L -34.681 309.047 Z" id="path23" style="stroke-width: 1.333;"/>
    </clipPath>
    <clipPath clipPathUnits="userSpaceOnUse" id="clipPath31">
      <path d="M -34.686 568.622 L 631.994 568.622 L 631.994 -98.071 L -34.686 -98.071 L -34.686 568.622 Z" id="path31" style="stroke-width: 1.333;"/>
    </clipPath>
    <clipPath clipPathUnits="userSpaceOnUse" id="clipPath49">
      <path d="M 0 747.791 L 666.667 747.791 L 666.667 81.124 L 0 81.124 L 0 747.791 Z" id="path49" style="stroke-width: 1.333;"/>
    </clipPath>
    <clipPath clipPathUnits="userSpaceOnUse" id="clipPath57">
      <path d="M -34.665 210.986 L 631.957 210.986 L 631.957 -455.67 L -34.665 -455.67 L -34.665 210.986 Z" id="path57" style="stroke-width: 1.333;"/>
    </clipPath>
    <clipPath clipPathUnits="userSpaceOnUse" id="clipPath59">
      <path d="M -34.68 256.114 L 631.984 256.114 L 631.984 -410.55 L -34.68 -410.55 L -34.68 256.114 Z" id="path59" style="stroke-width: 1.333;"/>
    </clipPath>
    <clipPath clipPathUnits="userSpaceOnUse" id="clipPath61">
      <path d="M -34.679 299.975 L 631.981 299.975 L 631.981 -366.7 L -34.679 -366.7 L -34.679 299.975 Z" id="path61" style="stroke-width: 1.333;"/>
    </clipPath>
    <clipPath clipPathUnits="userSpaceOnUse" id="clipPath63">
      <path d="M -34.677 251.036 L 631.979 251.036 L 631.979 -415.63 L -34.677 -415.63 L -34.677 251.036 Z" id="path63" style="stroke-width: 1.333;"/>
    </clipPath>
    <clipPath clipPathUnits="userSpaceOnUse" id="clipPath65">
      <path d="M -34.682 291.85 L 631.988 291.85 L 631.988 -374.82 L -34.682 -374.82 L -34.682 291.85 Z" id="path65" style="stroke-width: 1.333;"/>
    </clipPath>
    <clipPath clipPathUnits="userSpaceOnUse" id="clipPath67">
      <path d="M -34.703 335.447 L 632.031 335.447 L 632.031 -331.21 L -34.703 -331.21 L -34.703 335.447 Z" id="path67" style="stroke-width: 1.333;"/>
    </clipPath>
    <clipPath clipPathUnits="userSpaceOnUse" id="clipPath69">
      <path d="M -34.669 332.974 L 631.965 332.974 L 631.965 -333.68 L -34.669 -333.68 L -34.669 332.974 Z" id="path69" style="stroke-width: 1.333;"/>
    </clipPath>
    <clipPath clipPathUnits="userSpaceOnUse" id="clipPath75">
      <path d="M -34.682 307.105 L 631.988 307.105 L 631.988 -359.56 L -34.682 -359.56 L -34.682 307.105 Z" id="path75" style="stroke-width: 1.333;"/>
    </clipPath>
    <clipPath clipPathUnits="userSpaceOnUse" id="clipPath77">
      <path d="M -34.676 384.357 L 631.974 384.357 L 631.974 -282.31 L -34.676 -282.31 L -34.676 384.357 Z" id="path77" style="stroke-width: 1.333;"/>
    </clipPath>
    <clipPath clipPathUnits="userSpaceOnUse" id="clipPath79">
      <path d="M -34.682 248.651 L 631.987 248.651 L 631.987 -418.01 L -34.682 -418.01 L -34.682 248.651 Z" id="path79" style="stroke-width: 1.333;"/>
    </clipPath>
    <clipPath clipPathUnits="userSpaceOnUse" id="clipPath81">
      <path d="M -34.687 316.672 L 631.995 316.672 L 631.995 -349.99 L -34.687 -349.99 L -34.687 316.672 Z" id="path81" style="stroke-width: 1.333;"/>
    </clipPath>
    <clipPath clipPathUnits="userSpaceOnUse" id="clipPath83">
      <path d="M -34.682 363.878 L 631.989 363.878 L 631.989 -302.77 L -34.682 -302.77 L -34.682 363.878 Z" id="path83" style="stroke-width: 1.333;"/>
    </clipPath>
    <clipPath clipPathUnits="userSpaceOnUse" id="clipPath85">
      <path d="M -34.683 435.177 L 631.988 435.177 L 631.988 -231.49 L -34.683 -231.49 L -34.683 435.177 Z" id="path85" style="stroke-width: 1.333;"/>
    </clipPath>
    <clipPath clipPathUnits="userSpaceOnUse" id="clipPath87">
      <path d="M -34.663 407.391 L 631.959 407.391 L 631.959 -259.27 L -34.663 -259.27 L -34.663 407.391 Z" id="path87" style="stroke-width: 1.333;"/>
    </clipPath>
    <clipPath clipPathUnits="userSpaceOnUse" id="clipPath89">
      <path d="M -34.681 475.88 L 631.987 475.88 L 631.987 -190.79 L -34.681 -190.79 L -34.681 475.88 Z" id="path89" style="stroke-width: 1.333;"/>
    </clipPath>
    <clipPath clipPathUnits="userSpaceOnUse" id="clipPath91">
      <path d="M -34.682 498.835 L 631.986 498.835 L 631.986 -167.83 L -34.682 -167.83 L -34.682 498.835 Z" id="path91" style="stroke-width: 1.333;"/>
    </clipPath>
    <clipPath clipPathUnits="userSpaceOnUse" id="clipPath93">
      <path d="M -34.682 501.081 L 631.988 501.081 L 631.988 -165.59 L -34.682 -165.59 L -34.682 501.081 Z" id="path93" style="stroke-width: 1.333;"/>
    </clipPath>
    <clipPath clipPathUnits="userSpaceOnUse" id="clipPath95">
      <path d="M -34.674 569.181 L 631.977 569.181 L 631.977 -97.49 L -34.674 -97.49 L -34.674 569.181 Z" id="path95" style="stroke-width: 1.333;"/>
    </clipPath>
    <clipPath clipPathUnits="userSpaceOnUse" id="clipPath97">
      <path d="M -34.675 542.464 L 631.978 542.464 L 631.978 -124.21 L -34.675 -124.21 L -34.675 542.464 Z" id="path97" style="stroke-width: 1.333;"/>
    </clipPath>
    <clipPath clipPathUnits="userSpaceOnUse" id="clipPath99">
      <path d="M -34.682 474.5 L 631.987 474.5 L 631.987 -192.17 L -34.682 -192.17 L -34.682 474.5 Z" id="path99" style="stroke-width: 1.333;"/>
    </clipPath>
    <clipPath clipPathUnits="userSpaceOnUse" id="clipPath101">
      <path d="M -34.674 513.096 L 631.97 513.096 L 631.97 -153.56 L -34.674 -153.56 L -34.674 513.096 Z" id="path101" style="stroke-width: 1.333;"/>
    </clipPath>
    <clipPath clipPathUnits="userSpaceOnUse" id="clipPath103">
      <path d="M -34.683 581.436 L 631.99 581.436 L 631.99 -85.23 L -34.683 -85.23 L -34.683 581.436 Z" id="path103" style="stroke-width: 1.333;"/>
    </clipPath>
    <clipPath clipPathUnits="userSpaceOnUse" id="clipPath105">
      <path d="M -34.678 600.754 L 631.979 600.754 L 631.979 -65.906 L -34.678 -65.906 L -34.678 600.754 Z" id="path105" style="stroke-width: 1.333;"/>
    </clipPath>
    <clipPath clipPathUnits="userSpaceOnUse" id="clipPath107">
      <path d="M -34.676 605.57 L 631.975 605.57 L 631.975 -61.082 L -34.676 -61.082 L -34.676 605.57 Z" id="path107" style="stroke-width: 1.333;"/>
    </clipPath>
    <clipPath clipPathUnits="userSpaceOnUse" id="clipPath109">
      <path d="M -34.683 608.943 L 631.991 608.943 L 631.991 -57.717 L -34.683 -57.717 L -34.683 608.943 Z" id="path109" style="stroke-width: 1.333;"/>
    </clipPath>
    <clipPath clipPathUnits="userSpaceOnUse" id="clipPath111">
      <path d="M -34.681 612.399 L 631.986 612.399 L 631.986 -54.244 L -34.681 -54.244 L -34.681 612.399 Z" id="path111" style="stroke-width: 1.333;"/>
    </clipPath>
    <clipPath clipPathUnits="userSpaceOnUse" id="clipPath113">
      <path d="M -34.683 589.374 L 631.991 589.374 L 631.991 -77.288 L -34.683 -77.288 L -34.683 589.374 Z" id="path113" style="stroke-width: 1.333;"/>
    </clipPath>
    <clipPath clipPathUnits="userSpaceOnUse" id="clipPath115">
      <path d="M -34.651 538.477 L 631.916 538.477 L 631.916 -128.23 L -34.651 -128.23 L -34.651 538.477 Z" id="path115" style="stroke-width: 1.333;"/>
    </clipPath>
    <clipPath clipPathUnits="userSpaceOnUse" id="clipPath117">
      <path d="M -34.682 592.859 L 631.986 592.859 L 631.986 -73.817 L -34.682 -73.817 L -34.682 592.859 Z" id="path117" style="stroke-width: 1.333;"/>
    </clipPath>
    <clipPath clipPathUnits="userSpaceOnUse" id="clipPath119">
      <path d="M -34.685 606.03 L 631.991 606.03 L 631.991 -60.64 L -34.685 -60.64 L -34.685 606.03 Z" id="path119" style="stroke-width: 1.333;"/>
    </clipPath>
    <clipPath clipPathUnits="userSpaceOnUse" id="clipPath121">
      <path d="M -34.678 610.495 L 631.98 610.495 L 631.98 -56.174 L -34.678 -56.174 L -34.678 610.495 Z" id="path121" style="stroke-width: 1.333;"/>
    </clipPath>
    <clipPath clipPathUnits="userSpaceOnUse" id="clipPath123">
      <path d="M -34.678 608.386 L 631.981 608.386 L 631.981 -58.261 L -34.678 -58.261 L -34.678 608.386 Z" id="path123" style="stroke-width: 1.333;"/>
    </clipPath>
    <clipPath clipPathUnits="userSpaceOnUse" id="clipPath125">
      <path d="M -34.698 618.195 L 632.017 618.195 L 632.017 -48.501 L -34.698 -48.501 L -34.698 618.195 Z" id="path125" style="stroke-width: 1.333;"/>
    </clipPath>
    <clipPath clipPathUnits="userSpaceOnUse" id="clipPath127">
      <path d="M -34.679 860.24 L 631.982 860.24 L 631.982 193.574 L -34.679 193.574 L -34.679 860.24 Z" id="path127" style="stroke-width: 1.333;"/>
    </clipPath>
    <clipPath clipPathUnits="userSpaceOnUse" id="clipPath129">
      <path d="M -34.68 862.694 L 631.985 862.694 L 631.985 196.029 L -34.68 196.029 L -34.68 862.694 Z" id="path129" style="stroke-width: 1.333;"/>
    </clipPath>
    <clipPath clipPathUnits="userSpaceOnUse" id="clipPath131">
      <path d="M -34.681 1155.51 L 631.985 1155.51 L 631.985 488.83 L -34.681 488.83 L -34.681 1155.51 Z" id="path131" style="stroke-width: 1.333;"/>
    </clipPath>
    <clipPath clipPathUnits="userSpaceOnUse" id="clipPath133">
      <path d="M -34.681 1021.54 L 631.986 1021.54 L 631.986 354.878 L -34.681 354.878 L -34.681 1021.54 Z" id="path133" style="stroke-width: 1.333;"/>
    </clipPath>
    <clipPath clipPathUnits="userSpaceOnUse" id="clipPath135">
      <path d="M -34.687 1108.86 L 631.996 1108.86 L 631.996 442.194 L -34.687 442.194 L -34.687 1108.86 Z" id="path135" style="stroke-width: 1.333;"/>
    </clipPath>
    <clipPath clipPathUnits="userSpaceOnUse" id="clipPath137">
      <path d="M -34.688 850.034 L 632.003 850.034 L 632.003 183.364 L -34.688 183.364 L -34.688 850.034 Z" id="path137" style="stroke-width: 1.333;"/>
    </clipPath>
    <clipPath clipPathUnits="userSpaceOnUse" id="clipPath139">
      <path d="M -34.691 970.56 L 632.008 970.56 L 632.008 303.894 L -34.691 303.894 L -34.691 970.56 Z" id="path139" style="stroke-width: 1.333;"/>
    </clipPath>
    <clipPath clipPathUnits="userSpaceOnUse" id="clipPath141">
      <path d="M -34.678 270.279 L 631.979 270.279 L 631.979 -396.39 L -34.678 -396.39 L -34.678 270.279 Z" id="path141" style="stroke-width: 1.333;"/>
    </clipPath>
    <clipPath clipPathUnits="userSpaceOnUse" id="clipPath143">
      <path d="M -34.684 270.601 L 631.991 270.601 L 631.991 -396.05 L -34.684 -396.05 L -34.684 270.601 Z" id="path143" style="stroke-width: 1.333;"/>
    </clipPath>
    <clipPath clipPathUnits="userSpaceOnUse" id="clipPath145">
      <path d="M -34.691 270.27 L 632.003 270.27 L 632.003 -396.31 L -34.691 -396.31 L -34.691 270.27 Z" id="path145" style="stroke-width: 1.333;"/>
    </clipPath>
    <clipPath clipPathUnits="userSpaceOnUse" id="clipPath147">
      <path d="M -34.667 266.394 L 631.961 266.394 L 631.961 -400.12 L -34.667 -400.12 L -34.667 266.394 Z" id="path147" style="stroke-width: 1.333;"/>
    </clipPath>
    <clipPath clipPathUnits="userSpaceOnUse" id="clipPath149">
      <path d="M -34.664 265.699 L 631.951 265.699 L 631.951 -400.82 L -34.664 -400.82 L -34.664 265.699 Z" id="path149" style="stroke-width: 1.333;"/>
    </clipPath>
    <clipPath clipPathUnits="userSpaceOnUse" id="clipPath151">
      <path d="M -34.68 257.877 L 631.984 257.877 L 631.984 -408.71 L -34.68 -408.71 L -34.68 257.877 Z" id="path151" style="stroke-width: 1.333;"/>
    </clipPath>
    <clipPath clipPathUnits="userSpaceOnUse" id="clipPath153">
      <path d="M -34.667 257.694 L 631.958 257.694 L 631.958 -408.91 L -34.667 -408.91 L -34.667 257.694 Z" id="path153" style="stroke-width: 1.333;"/>
    </clipPath>
    <clipPath clipPathUnits="userSpaceOnUse" id="clipPath155">
      <path d="M -34.668 277.889 L 631.961 277.889 L 631.961 -388.78 L -34.668 -388.78 L -34.668 277.889 Z" id="path155" style="stroke-width: 1.333;"/>
    </clipPath>
    <clipPath clipPathUnits="userSpaceOnUse" id="clipPath157">
      <path d="M -34.678 299.88 L 631.981 299.88 L 631.981 -366.86 L -34.678 -366.86 L -34.678 299.88 Z" id="path157" style="stroke-width: 1.333;"/>
    </clipPath>
    <clipPath clipPathUnits="userSpaceOnUse" id="clipPath159">
      <path d="M -34.712 265.395 L 632.05 265.395 L 632.05 -401.02 L -34.712 -401.02 L -34.712 265.395 Z" id="path159" style="stroke-width: 1.333;"/>
    </clipPath>
    <clipPath clipPathUnits="userSpaceOnUse" id="clipPath161">
      <path d="M -34.678 217.873 L 631.981 217.873 L 631.981 -448.87 L -34.678 -448.87 L -34.678 217.873 Z" id="path161" style="stroke-width: 1.333;"/>
    </clipPath>
    <clipPath clipPathUnits="userSpaceOnUse" id="clipPath163">
      <path d="M -34.687 209.742 L 631.997 209.742 L 631.997 -456.88 L -34.687 -456.88 L -34.687 209.742 Z" id="path163" style="stroke-width: 1.333;"/>
    </clipPath>
    <clipPath clipPathUnits="userSpaceOnUse" id="clipPath165">
      <path d="M -34.711 268.938 L 632.034 268.938 L 632.034 -397.73 L -34.711 -397.73 L -34.711 268.938 Z" id="path165" style="stroke-width: 1.333;"/>
    </clipPath>
    <clipPath clipPathUnits="userSpaceOnUse" id="clipPath167">
      <path d="M -34.679 374.11 L 631.981 374.11 L 631.981 -292.56 L -34.679 -292.56 L -34.679 374.11 Z" id="path167" style="stroke-width: 1.333;"/>
    </clipPath>
    <clipPath clipPathUnits="userSpaceOnUse" id="clipPath169">
      <path d="M -34.695 349.753 L 632.019 349.753 L 632.019 -316.89 L -34.695 -316.89 L -34.695 349.753 Z" id="path169" style="stroke-width: 1.333;"/>
    </clipPath>
    <clipPath clipPathUnits="userSpaceOnUse" id="clipPath171">
      <path d="M -34.68 403.291 L 631.983 403.291 L 631.983 -263.39 L -34.68 -263.39 L -34.68 403.291 Z" id="path171" style="stroke-width: 1.333;"/>
    </clipPath>
    <clipPath clipPathUnits="userSpaceOnUse" id="clipPath173">
      <path d="M -34.7 381.437 L 632.029 381.437 L 632.029 -285.16 L -34.7 -285.16 L -34.7 381.437 Z" id="path173" style="stroke-width: 1.333;"/>
    </clipPath>
    <clipPath clipPathUnits="userSpaceOnUse" id="clipPath197">
      <path d="M -34.668 518.128 L 631.953 518.128 L 631.953 -148.55 L -34.668 -148.55 L -34.668 518.128 Z" id="path197" style="stroke-width: 1.333;"/>
    </clipPath>
    <clipPath clipPathUnits="userSpaceOnUse" id="clipPath199">
      <path d="M -34.665 519.397 L 631.963 519.397 L 631.963 -147.21 L -34.665 -147.21 L -34.665 519.397 Z" id="path199" style="stroke-width: 1.333;"/>
    </clipPath>
  </defs>
  <g transform="matrix(1, 0, 0, 1, 25.307726, 2.811962)">
    <path id="path4" d="M 215.719 139.837 C 215.675 142.837 214.971 145.802 214.572 148.772 C 214.079 151.785 213.566 154.83 212.384 157.666 C 211.39 160.23 209.423 162.19 207.856 164.398 C 207.608 164.754 207.41 165.206 207.202 165.656 C 207.234 166.466 207.187 167.309 207.299 167.946 C 207.471 171.726 207.543 175.726 209.488 179.09 C 210.195 180.096 211.031 181.006 211.904 181.868 C 212.318 182.289 212.46 182.766 212.415 183.213 C 214.36 185.44 209.267 188.368 207.832 189.732 C 203.456 193.384 197.55 194.494 191.996 193.726 C 190.722 193.581 187.531 192.885 185.723 191.741 C 185.636 191.74 185.55 191.732 185.462 191.716 C 183.675 191.268 183.108 189.05 182.964 187.434 C 182.552 183.742 184.092 180.337 184.88 176.81 C 185.484 173.805 187.035 167.984 185.231 165.377 C 179.126 162.373 176.602 155.472 176.076 149.056 C 176.092 147.414 175.414 145.532 176.096 144.004 C 176.148 143.682 176.268 143.416 176.436 143.205 C 176.232 142.513 176.414 141.708 177.119 141.26 C 178.294 140.502 179.184 139.354 179.423 137.958 C 179.751 136.325 179.432 134.666 179.566 133.021 C 179.83 129.796 181.972 126.794 184.956 125.528 C 189.031 123.9 193.67 124.101 197.559 121.934 C 200.012 120.797 201.95 117.661 204.39 120.837 C 206.092 123.053 207.13 125.73 209.056 127.797 C 212.19 131.166 215.718 134.942 215.719 139.837" style="fill: rgb(253, 202, 159); fill-opacity: 1; fill-rule: evenodd; stroke: none; stroke-width: 1.333;" clip-path="url(#clipPath5)"/>
    <path id="path6" d="M 195.956 309.845 C 196.616 311.1 196.919 313.003 195.515 313.545 C 195.375 315.225 192.773 316.765 191.224 316.6 C 185.075 315.948 180.443 311.628 175.312 308.633 C 171.529 306.388 167.879 303.879 164.827 300.687 C 161.952 298.023 160.169 294.299 157.045 291.909 C 150.305 287.216 141.861 284.648 136.597 278.079 C 135.695 277.157 134.216 274.793 133.856 272.955 C 133.831 272.885 133.809 272.816 133.793 272.741 C 132.727 266.856 134.436 260.851 135.295 255.029 C 136.331 248.847 137.276 242.651 138.372 236.477 C 139.473 231.031 140.583 226.061 141.512 220.703 C 141.987 218.361 142.489 216.021 143.157 213.725 C 143.237 213.464 143.372 213.231 143.545 213.037 C 145.205 207.141 150.603 193.304 154.049 196.709 C 155.505 198.287 154.103 200.512 153.681 202.251 C 153.18 204.071 152.731 205.956 152.824 207.855 C 153.077 210.672 154.632 213.187 156.697 215.056 C 158.252 216.844 157.221 219.5 157.041 221.609 C 156.709 223.999 156.579 226.415 156.708 228.824 C 159.12 243.663 161.884 238.992 156.165 255.383 C 155.055 258.573 153.792 261.715 152.876 264.972 C 152.58 265.66 152.481 266.651 152.309 267.585 C 153.163 268.353 153.844 269.473 154.621 270.207 C 157.812 273.119 160.828 276.197 163.948 279.179 C 165.131 280.437 166.856 281.32 167.736 282.805 C 179.8 289.761 184.415 290.617 192.548 303.221 C 193.932 305.293 195.035 307.532 195.956 309.845" style="fill: rgb(253, 202, 159); fill-opacity: 1; fill-rule: evenodd; stroke: none; stroke-width: 1.333;" clip-path="url(#clipPath7)"/>
    <path id="path8" d="M 254.465 243.829 C 255.182 252.898 256.412 261.97 256.413 271.075 C 256.172 276.203 253.269 281.058 248.92 283.766 C 248.056 284.343 247.196 284.93 246.342 285.526 C 245.428 286.421 244.504 287.302 243.58 288.181 C 240.184 291.401 236.31 294.062 232.968 297.342 C 228.32 300.898 226.549 307.743 220.765 309.838 C 217.941 312.214 214.717 314.015 211.358 315.501 C 209.937 316.078 208.617 317.473 207.002 317.263 C 205.734 317.829 204.165 318.871 202.825 317.938 C 202.329 317.573 202.032 316.977 202.041 316.369 C 201.745 316.534 201.437 316.671 201.093 316.721 C 200.649 316.783 200.23 316.671 199.893 316.438 C 198.762 317.874 196.322 317.218 196.553 315.266 C 196.598 315.006 196.693 314.779 196.825 314.578 C 196.918 313.451 197.902 312.154 198.242 311.137 C 201.698 300.25 212.09 296.489 220.737 290.57 C 223.446 288.587 226.322 286.799 228.782 284.501 C 232.501 280.809 234.976 276.429 238.004 272.29 C 238.602 270.834 239.086 269.33 239.401 267.785 C 239.437 267.053 239.701 266.279 240.158 265.775 C 238.124 255.402 235.961 245.059 233.76 234.722 C 233.412 233.801 233.041 232.889 232.638 231.991 C 231.874 232.39 230.832 232.289 230.328 231.43 C 229.461 229.334 228.425 227.202 228.242 224.905 C 227.556 221.023 227.218 217.058 227.477 213.117 C 227.597 208.995 227.289 204.842 227.837 200.741 C 228.184 198.494 228.71 196.277 228.817 193.998 C 228.929 193.137 228.9 192.262 228.997 191.403 C 229.914 188.874 232.018 190.345 233.517 191.402 C 242.652 196.395 246.778 202.371 249.45 211.63 C 250.121 211.782 250.694 212.322 250.798 213.034 C 251.252 216.138 251.71 219.235 252.036 222.355 C 252.198 223.818 252.326 225.282 252.432 226.749 L 252.432 226.75 C 252.714 227.274 252.938 227.931 253.118 228.678 C 253.692 229.162 253.846 230.031 253.784 230.901 C 254.277 235.195 254.248 239.517 254.465 243.829" style="fill: rgb(253, 202, 159); fill-opacity: 1; fill-rule: evenodd; stroke: none; stroke-width: 1.333;" clip-path="url(#clipPath9)"/>
    <path id="path14" d="M 206.658 155.082 C 204.514 153.652 204.629 150.4 206.098 148.514 C 207.721 146.472 211.03 144.93 213.461 146.441 C 217.805 149.606 211.137 158.125 206.658 155.082" style="fill: rgb(253, 179, 150); fill-opacity: 1; fill-rule: evenodd; stroke: none; stroke-width: 1.333;" clip-path="url(#clipPath15)"/>
    <path id="path16" d="M 176.85 153.694 C 174.801 151.67 174.924 147.712 177.717 146.431 C 179.982 144.862 183.178 146.927 184.594 148.84 C 188.088 154.032 180.418 158.011 176.85 153.694" style="fill: rgb(253, 179, 150); fill-opacity: 1; fill-rule: evenodd; stroke: none; stroke-width: 1.333;" clip-path="url(#clipPath17)"/>
    <path id="path18" d="M 196.915 157.53 C 196.868 157.518 196.82 157.502 196.772 157.482 C 196.49 157.414 196.199 157.356 195.908 157.322 C 195.458 157.35 194.963 157.498 194.487 157.629 C 194.87 157.845 195.323 157.99 195.758 157.985 C 196.171 157.938 196.615 157.838 196.915 157.53 M 194.544 159.706 C 193.239 159.373 191.69 158.07 192.08 156.598 C 193.09 155.192 197.191 154.658 198.41 156.089 C 200.054 157.152 198.411 159.213 197.051 159.636 C 196.234 159.924 195.371 159.976 194.544 159.706" style="fill: rgb(242, 86, 59); fill-opacity: 1; fill-rule: evenodd; stroke: none; stroke-width: 1.333;" clip-path="url(#clipPath19)"/>
    <path id="path22" d="M 167.002 181.197 C 167.022 178.604 164.874 174.936 161.952 176.721 C 160.99 177.488 160.316 178.56 159.646 179.577 C 159.386 179.842 159.438 180.36 159.771 180.548 C 157.56 183.17 154.119 184.053 151.522 186.21 C 150.356 187.122 149.686 188.556 149.379 189.977 C 149.14 191.345 149.635 192.756 150.318 193.928 C 150.992 195.022 152.123 195.682 153.12 196.448 C 153.578 196.793 153.988 197.206 154.48 197.504 C 155.312 198.018 156.138 197.325 156.706 196.741 C 157.435 196.112 158.243 195.578 159.036 195.034 C 160.382 194.102 161.735 193.152 162.87 191.965 C 165.406 189.017 167.115 185.126 167.002 181.197 M 181.706 193.016 C 182.151 192.948 182.52 193.388 182.444 193.817 C 182.339 194.348 181.972 194.796 181.666 195.23 C 180.892 196.308 179.942 197.241 178.895 198.052 C 176.847 199.733 174.267 200.436 171.87 201.445 C 166.742 203.604 162.104 207.724 163.67 213.796 C 163.848 214.66 164.107 215.505 164.388 216.341 C 164.555 216.824 164.551 217.502 163.984 217.712 C 163.998 218.077 163.667 218.352 163.332 218.352 C 163.212 218.352 163.092 218.316 162.987 218.237 C 162.303 217.945 161.682 217.568 161.123 217.124 C 161.102 216.95 161.05 216.781 160.996 216.613 C 160.982 216.572 160.97 216.53 160.956 216.49 C 161.018 216.338 161.042 216.169 161.023 215.997 C 160.999 215.764 160.886 215.53 160.808 215.309 C 160.659 214.873 160.507 214.434 160.386 213.989 C 160.247 213.481 160.132 212.972 160.027 212.457 C 159.882 211.658 159.723 210.857 159.658 210.048 C 159.638 209.665 159.646 209.284 159.667 208.901 C 159.746 207.978 159.85 207.069 160.011 206.156 C 160.11 205.697 160.207 205.236 160.331 204.78 C 160.368 204.642 160.407 204.505 160.446 204.368 C 160.496 204.264 160.544 204.161 160.594 204.057 C 161.056 203.188 161.547 202.336 162.074 201.504 C 162.242 201.237 162.414 200.972 162.586 200.706 C 167.206 197.13 171.426 198.097 176.823 196.684 C 178.226 196.186 179.558 195.257 180.532 194.16 C 180.923 193.784 181.128 193.134 181.706 193.016 M 226.683 131.225 C 226.55 128.604 225.931 126.056 225.234 123.538 C 224.919 122.333 224.687 121.088 224.235 119.929 C 224.142 119.753 223.982 119.658 223.811 119.63 C 223.694 119.134 223.552 118.644 223.387 118.16 C 223.15 117.548 222.996 116.864 222.595 116.337 C 222.258 115.996 221.663 116.161 221.534 116.617 C 221.456 116.896 221.587 117.169 221.69 117.42 C 221.999 118.144 222.184 118.917 222.23 119.704 C 222.324 123.214 220.496 127.593 216.632 128.189 C 213.692 128.709 210.288 127.958 208.303 125.614 C 206.838 123.781 205.195 121.968 204.122 119.814 C 203.955 119.105 202.86 119.244 202.875 119.973 C 203.078 120.64 203.41 121.258 203.796 121.852 C 203.847 122.092 203.971 122.321 204.09 122.529 C 205.287 124.548 206.71 126.42 208.388 128.064 C 209.466 129.201 210.68 130.218 212.1 130.9 C 214.807 134.038 215.651 136.057 215.92 140.222 C 216.23 145.089 215.492 150.108 213.6 154.644 C 212.831 156.526 211.706 158.228 210.612 159.936 C 209.539 161.669 208.159 163.358 207.826 165.422 C 207.594 167.313 207.69 169.241 207.807 171.138 C 207.93 171.893 207.806 173.05 208.679 173.365 C 209.238 173.513 209.563 172.957 209.726 172.506 C 209.952 171.986 210.168 171.462 210.406 170.949 C 210.923 169.814 211.548 168.733 212.159 167.648 C 214.024 164.02 216.334 160.68 218.598 157.293 C 222.571 152.049 224.316 145.448 225.628 139.084 C 226.194 136.502 226.899 133.89 226.683 131.225 M 203.247 115.054 C 203.398 115.21 203.468 115.44 203.407 115.664 C 203.366 115.814 203.268 115.941 203.142 116.024 C 203.071 116.841 202.974 117.545 202.858 118.061 C 202.7 118.81 202.474 119.534 202.228 120.258 C 202.212 120.308 202.191 120.354 202.166 120.397 C 202.191 120.537 202.17 120.686 202.09 120.824 C 201.926 121.105 201.531 121.232 201.244 121.064 C 201.056 121.501 200.78 121.938 200.258 121.726 C 199.954 121.597 199.768 121.205 199.92 120.894 C 200.174 120.377 200.376 119.844 200.555 119.34 C 200.568 119.293 200.583 119.249 200.596 119.202 C 200.416 118.564 200.092 117.936 199.467 117.646 C 198.26 117.145 196.931 117.03 195.64 116.908 C 195.044 116.869 194.455 116.876 193.859 116.914 C 193.468 116.988 193.027 116.824 192.97 116.384 C 192.952 116.258 192.978 116.132 193.032 116.018 C 192.81 114.753 196.73 115.185 197.504 115.264 C 198.815 115.417 200.211 115.753 201.291 116.53 C 201.419 115.929 201.528 115.322 201.615 114.713 C 200.707 113.461 199.13 112.865 197.723 112.321 C 196.963 111.984 197.438 110.849 198.216 111.152 C 199.238 111.525 200.27 111.954 201.167 112.57 C 201.267 112.464 201.419 112.382 201.635 112.342 C 201.706 112.329 201.774 112.33 201.838 112.342 C 201.932 110.162 201.706 107.981 201.036 105.889 C 200.936 105.268 201.803 104.892 202.174 105.409 C 203.168 107.053 203.398 111.602 203.214 114.982 C 203.224 115.006 203.235 115.03 203.247 115.054 M 187.223 104.793 C 187.931 105.096 187.672 106.174 186.892 106.045 C 182.348 108.809 177.122 114.374 176.076 119.709 C 175.982 120.294 175.898 120.892 175.958 121.484 C 176.078 122.017 176.314 122.513 176.528 123.013 C 177.226 124.628 178.779 125.765 180.546 125.876 C 181.36 125.936 182.159 125.701 182.891 125.361 C 183.18 125.23 183.52 125.002 183.851 125.106 C 184.368 125.248 184.446 125.906 184.094 126.264 C 181.69 128.482 181.208 130.558 181.006 133.721 C 180.904 135.596 180.884 137.536 180.092 139.276 C 179.306 141.013 177.818 142.274 176.434 143.532 C 176.182 143.754 175.931 143.977 175.684 144.205 C 175.7 144.516 175.679 144.836 175.719 145.048 C 175.796 146.178 175.876 147.309 176.026 148.434 C 176.534 152.156 176.826 156.097 178.688 159.434 C 179.631 161.109 181.166 162.448 182.743 163.468 C 183.67 164.133 184.794 164.558 185.543 165.442 C 187.051 167.669 186.294 173.55 185.85 176.19 C 185.538 177.357 184.667 184.313 182.859 183.076 C 182.667 182.926 182.576 182.7 182.499 182.478 C 182.24 181.742 181.908 181.037 181.472 180.392 C 178.887 176.593 174.882 174.188 171.847 170.809 C 170.056 168.885 168.475 166.605 167.83 164.026 C 166.803 159.162 167.436 153.569 169.72 149.112 C 169.764 148.693 169.962 148.213 169.992 147.866 C 170.254 146.406 170.755 144.853 170.231 143.396 C 169.062 140.489 167.623 143.088 166.878 141.765 C 166.788 141.617 166.807 141.296 166.844 141.176 C 167.09 139.881 167.366 138.59 167.458 137.274 C 167.559 134.728 167.103 132.365 167.303 129.858 C 167.558 125.868 168.687 121.88 170.818 118.478 C 172.059 116.657 173.506 115.016 175.072 113.489 C 174.524 112.046 179.17 109.36 180.112 108.661 C 180.312 108.573 180.508 108.602 180.664 108.697 C 181.319 108.186 181.976 107.68 182.632 107.178 C 182.708 106.73 183.263 106.526 183.626 106.781 C 184.435 106.208 186.234 104.478 187.223 104.793" style="fill: rgb(140, 68, 46); fill-opacity: 1; fill-rule: evenodd; stroke: none; stroke-width: 1.333;" clip-path="url(#clipPath23)"/>
    <path id="path30" d="M 231.522 299.709 C 230.572 299.506 230.396 298.414 229.882 297.737 C 228.79 296.011 227.624 294.274 226.156 292.845 C 225.464 292.278 224.727 291.73 223.883 291.41 C 223.406 291.31 222.939 291.007 222.764 290.534 C 222.378 289.661 223.034 288.613 223.971 288.527 C 225.226 286.553 229.262 282.058 231.826 283.115 C 235.235 284.735 239.264 286.778 240.306 290.715 C 240.854 293.169 238.439 295.101 236.67 296.402 C 235.104 297.49 233.575 299.866 231.522 299.709" style="fill: rgb(224, 230, 233); fill-opacity: 1; fill-rule: evenodd; stroke: none; stroke-width: 1.333;" clip-path="url(#clipPath31)"/>
    <g transform="matrix(1, 0, 0, 1, -34.68092, 14.059844)">
      <path id="path20" d="M 259.993 108.524 C 261.804 114.434 261.512 120.74 260.386 126.756 C 260.018 128.582 259.502 130.381 258.924 132.153 C 258.653 132.848 258.53 133.761 257.889 134.205 C 255.202 141.01 250.313 146.646 246.817 153.01 C 246.021 154.645 245.258 156.298 244.636 158.009 C 244.368 158.902 243 159.04 242.653 158.133 C 242.437 156.336 242.374 154.49 242.184 152.677 C 241.893 152.282 241.961 151.792 242.136 151.353 C 242.129 150.809 242.35 150.194 242.909 150.018 C 244.437 147.573 246.156 145.241 247.57 142.732 C 249.73 137.238 250.162 131.212 250.694 125.372 L 250.694 125.366 C 250.682 125.053 250.662 124.74 250.641 124.428 C 250.613 123.89 250.502 123.349 250.61 122.816 C 250.66 122.621 250.748 122.468 250.865 122.354 C 249.969 120.51 248.453 118.868 246.577 116.976 C 245.701 116.13 244.916 115.208 244.169 114.254 C 244.109 114.185 244.052 114.116 243.994 114.05 C 243.38 113.354 242.741 112.676 242.156 111.952 C 241.436 110.994 240.766 109.994 240.145 108.962 C 239.046 107.694 237.352 105.944 238.06 104.997 C 237.866 104.578 237.682 104.153 237.504 103.726 C 237.492 103.697 237.478 103.668 237.466 103.636 C 236.31 106.409 233.914 108.33 230.749 108.774 C 224.717 109.908 217.302 109.906 215.781 117.309 C 215.278 119.66 215.78 122.181 214.684 124.397 C 213.78 126.522 212.062 128.282 210.582 129.957 C 210.57 129.972 210.558 129.986 210.545 130.002 C 210.352 131.09 210.392 132.198 210.48 133.294 C 210.892 138.704 211.904 144.678 216.221 148.409 C 217.602 149.968 220.44 150.336 220.576 152.754 C 221.028 154.494 219.841 164.686 218.053 167.468 C 218.176 168.418 218.261 169.374 218.294 170.334 C 218.662 177.297 217.326 180.856 211.617 184.982 C 205.358 188.512 197.684 189.352 198.241 198.537 C 198.341 199.814 198.462 201.104 198.816 202.34 C 198.984 202.534 199.049 202.765 199.036 202.993 C 199.428 203.725 198.721 204.882 197.725 204.457 C 189.745 201.732 183.837 195.386 188.421 186.89 C 190.141 184.809 189.969 183.361 187.462 182.216 C 186.126 181.422 184.629 180.565 183.993 179.073 C 183.145 176.856 183.826 174.198 185.476 172.529 C 187.06 170.996 188.997 169.878 191.021 169.029 C 194.33 167.132 195.773 164.969 194.737 161.132 C 194.186 158.048 192.074 155.588 191.057 152.673 C 188.174 145.252 193.417 137.95 197.901 132.401 C 199.792 129.964 201.794 127.36 201.801 124.13 C 201.885 117.848 202.136 111.31 204.838 105.518 C 207.705 99.458 213.257 95.41 219.152 92.554 C 222.852 90.498 227.078 89.277 231.333 89.812 C 232.405 89.737 235.248 90.542 236.528 91.701 C 236.932 91.548 237.437 91.568 238.04 91.844 C 238.369 91.957 238.594 92.316 238.74 92.833 C 239.278 92.413 240.309 92.589 240.984 92.629 C 244.157 92.91 247.35 93.698 250.149 95.25 C 251.748 96.268 253.436 97.238 254.688 98.69 C 256.885 101.678 258.661 105.065 259.993 108.524" style="fill: rgb(183, 99, 75); fill-opacity: 1; fill-rule: evenodd; stroke: none; stroke-width: 1.333;" clip-path="url(#clipPath21)"/>
      <path id="path48" d="M 306.972 565.134 C 307.149 565.55 307.113 565.962 306.945 566.304 C 307.198 566.73 307.225 567.271 306.825 567.783 C 303.362 571.675 296.404 571.464 291.541 572.032 C 283.836 572.675 276.03 571.807 268.378 572.952 C 259.234 575.403 249.989 578.503 240.389 577.65 C 234.13 577.142 228.112 575.1 221.886 574.319 C 216.414 573.312 210.818 573.288 205.278 573.638 C 190.653 575.35 175.497 578.395 161.126 573.555 C 158.849 572.924 151.485 569.238 153.274 566.592 C 152.708 561.647 154.086 556.606 154.441 551.67 C 155.742 541.216 156.997 530.506 159.038 520.204 C 161.816 501.919 164.63 483.643 167.965 465.458 C 167.821 464.25 168.613 462.586 168.597 461.478 C 169.113 458.396 169.613 455.315 170.134 452.232 C 172.396 436.847 174.073 421.376 175.849 405.928 C 177.116 398.619 178.213 391.283 178.621 383.871 C 178.876 382.494 178.633 378.827 179.598 377.271 C 179.601 376.879 179.602 376.488 179.605 376.096 C 179.67 375.788 179.813 375.55 180.002 375.371 C 179.534 368.28 178.962 361.182 179.228 354.087 C 178.98 348.519 178.918 342.644 180.153 338.518 C 179.824 333.122 179.625 327.722 179.997 322.312 C 180.372 316.443 180.498 310.356 182.645 304.812 C 182.758 304.582 182.934 304.399 183.142 304.271 C 184.094 299.367 185.361 294.54 187.036 289.823 C 188.137 287.476 189.276 281.947 191.41 280.754 C 192.032 279.887 193.413 279.964 193.913 280.827 C 194.017 280.863 194.121 280.914 194.221 280.982 C 194.946 281.494 195.308 282.375 195.9 283.024 C 198.14 285.914 201.085 288.11 203.909 290.39 C 205.61 291.616 207.089 293.16 208.942 294.168 C 210.337 294.942 211.529 295.238 212.854 295.938 C 215.702 297.508 218.286 299.579 221.322 300.803 C 223.505 301.379 227.026 303.316 228.764 301.122 C 229.656 300.184 229.92 298.636 231.03 297.959 C 230.817 297.819 230.644 297.614 230.546 297.344 C 229.026 293.936 227.508 290.48 225.632 287.248 C 222.196 282.948 218.746 278.468 214.444 275.035 C 213.624 275.268 213.05 274.888 212.792 274.34 C 212.716 274.32 212.637 274.292 212.558 274.258 C 208.216 272.256 203.333 271.054 200.233 267.135 C 197.73 264.606 198.406 263.51 198.862 260.42 C 198.988 253.982 198.877 247.462 197.586 241.13 C 196.698 236.471 194.736 232.135 193.09 227.716 C 191.972 224.34 191.093 220.772 190.712 217.174 C 190.578 216.996 190.485 216.774 190.448 216.5 C 189.981 213.707 189.836 210.816 190.586 208.092 C 190.624 207.358 190.728 206.615 190.713 206.003 C 190.93 202.664 192.441 201.023 195.221 203.786 C 196.229 203.602 197.208 204.151 198.149 204.439 C 198.569 204.283 199.013 204.424 199.436 204.5 C 194.39 182.827 213.625 192.712 217.721 178.244 C 218.738 175.468 222.477 178.707 224.541 178.688 C 229.672 179.674 234.966 179.58 239.952 177.919 C 242.37 177.043 244.756 175.656 246.293 173.55 C 247.262 172.519 246.945 170.579 248.41 170.064 C 249.678 169.708 250.684 170.847 251.774 171.299 C 255.361 172.895 259.146 174.028 262.898 175.168 C 263.213 175.26 263.448 175.42 263.614 175.62 C 264.004 175.647 264.382 175.83 264.64 176.164 C 265.325 177.2 264.498 178.479 264.472 179.612 C 263.336 185.186 262.249 190.804 261.962 196.483 C 262.242 196.467 262.526 196.528 262.768 196.671 C 263.768 197.24 263.432 198.295 263.129 199.167 C 262.573 204.199 262.256 209.439 264.178 214.194 C 264.716 215.68 266.205 216.52 266.793 217.918 C 267.002 219.319 266.033 220.539 265.577 221.802 C 264.564 224.116 263.597 226.451 262.642 228.788 C 262.426 229.522 262.237 230.262 262.074 231.011 C 261.644 233.462 261.289 235.927 260.82 238.371 C 259.76 243.882 259.592 249.494 260.009 255.08 C 260.193 259.54 260.872 264.002 263.282 267.846 C 264.632 270.254 261.161 271.79 259.833 273.33 C 254.542 277.942 247.612 280.168 242.408 284.87 C 239.585 287.355 237.185 290.288 235.365 293.582 C 234.778 294.567 234.189 295.558 233.665 296.578 C 233.637 297.048 233.378 297.408 233.029 297.628 C 232.869 297.854 232.644 298.012 232.392 298.104 C 232.928 298.49 233.226 299.219 232.882 299.868 C 232.572 300.512 232.256 301.095 231.926 301.618 C 233.144 301.702 234.004 301.483 235.186 303.052 C 237.616 302.208 237.382 304.092 239.365 303.963 C 241.972 303.863 244.261 302.426 246.537 301.294 C 249.386 299.802 252.21 298.27 255.09 296.835 C 255.737 296.483 256.568 295.888 257.32 295.792 C 257.357 295.758 257.398 295.726 257.441 295.694 C 259.052 294.599 260.633 293.411 261.65 291.715 C 263.66 289.05 267.405 281.822 269.665 288.468 C 272.241 294.348 273.758 300.699 273.912 307.12 C 274.85 316.071 274.405 325.076 275.26 334.027 C 275.512 339.59 274.846 345.136 275.145 350.702 C 275.238 356.956 274.629 363.21 274.894 369.456 C 275.057 372.147 275.153 374.839 275.198 377.536 C 275.29 380.714 275.881 383.85 275.906 387.031 C 276.038 389.552 276.676 392.024 276.517 394.562 C 276.625 394.85 276.62 395.143 276.53 395.41 C 278.826 409.666 280.84 424.128 283.169 438.323 C 285.132 447.966 286.944 457.656 288.116 467.432 C 288.838 471.328 289.501 475.236 290.085 479.155 C 290.245 480.707 291.257 482.411 290.624 483.912 C 290.826 485.55 291.134 487.192 291.229 488.839 C 292.749 495.951 294.417 503.035 295.866 510.163 C 297.273 518.707 299.457 527.142 300.456 535.704 C 302.134 541.924 303.512 548.22 304.886 554.512 C 305.4 556.652 305.972 558.727 306.366 560.896 C 306.542 562.284 307.358 563.756 306.972 565.134" style="fill: rgb(108, 84, 84); fill-opacity: 1; fill-rule: evenodd; stroke: none; stroke-width: 1.333;" clip-path="url(#clipPath49)"/>
    </g>
    <path id="path56" d="M 202.744 119.5 C 202.323 119.444 202 119.034 202.066 118.607 C 202.29 117.166 202.464 115.72 202.566 114.266 C 202.703 112.138 202.826 110.007 202.815 107.874 C 202.894 107.087 202.464 105.627 203.622 105.539 C 204.04 105.539 204.434 105.9 204.415 106.334 C 204.378 107.71 204.424 109.087 204.358 110.463 C 204.246 113.258 204.091 116.058 203.639 118.822 C 203.575 119.252 203.17 119.562 202.744 119.5" style="fill: rgb(53, 22, 26); fill-opacity: 1; fill-rule: evenodd; stroke: none; stroke-width: 1.333;" clip-path="url(#clipPath57)"/>
    <path id="path58" d="M 169.501 152.758 C 169.098 152.647 168.813 152.193 168.946 151.782 C 169.213 150.961 169.512 150.157 169.881 149.375 C 171.621 145.518 175.402 143.337 178.224 140.387 C 182.028 136.365 178.417 133.263 180.752 128.749 C 182.942 124.673 188.174 123.221 192.47 122.729 C 194.734 122.419 197.117 122.413 199.241 121.491 C 200.644 120.821 201.784 119.699 202.084 118.137 C 202.146 117.122 203.661 117.133 203.674 118.165 C 203.4 120.471 201.621 122.247 199.538 123.099 C 196.536 124.213 193.246 124.035 190.138 124.697 C 187.153 125.349 183.75 126.625 182.185 129.426 C 180.733 132.042 182.112 135.039 181.501 137.806 C 180.653 140.947 177.858 142.947 175.509 144.961 C 173.945 146.369 172.409 147.879 171.45 149.779 C 171.149 150.387 170.892 151.009 170.696 151.55 C 170.525 152.138 170.282 152.969 169.501 152.758" style="fill: rgb(53, 22, 26); fill-opacity: 1; fill-rule: evenodd; stroke: none; stroke-width: 1.333;" clip-path="url(#clipPath59)"/>
    <path id="path60" d="M 195.035 170.023 C 189.528 169.375 182.417 165.147 178.915 160.871 C 176.291 157.601 175.86 154.176 175.609 150.148 C 175.489 148.605 175.317 147.065 175.131 145.529 C 175.007 144.907 175.033 143.955 175.876 143.948 C 176.289 143.948 176.696 144.311 176.669 144.743 C 176.756 146.328 177.051 147.897 177.145 149.485 C 177.415 153.596 177.688 157.167 180.583 160.389 C 183.979 164.153 190.475 168.013 195.541 168.475 C 196.215 168.501 196.889 168.499 197.563 168.488 C 197.995 168.481 198.356 168.855 198.356 169.281 C 198.356 169.719 197.995 170.068 197.563 170.075 C 196.721 170.088 195.873 170.107 195.035 170.023" style="fill: rgb(53, 22, 26); fill-opacity: 1; fill-rule: evenodd; stroke: none; stroke-width: 1.333;" clip-path="url(#clipPath61)"/>
    <path id="path62" d="M 216.913 145.321 C 216.926 141.474 215.944 137.637 213.798 134.418 C 212.552 132.619 210.808 131.274 209.274 129.739 C 206.618 127.035 204.094 124.126 202.705 120.554 C 202.404 120.133 202.2 119.541 202.693 119.169 C 203.622 118.547 204.105 119.747 204.398 120.437 C 204.878 121.537 205.418 122.603 206.085 123.601 C 207.693 125.829 209.577 127.866 211.573 129.747 C 213.418 131.353 215.122 133.155 216.186 135.382 C 217.842 138.423 218.472 141.887 218.501 145.321 C 218.482 146.351 216.948 146.371 216.913 145.321" style="fill: rgb(53, 22, 26); fill-opacity: 1; fill-rule: evenodd; stroke: none; stroke-width: 1.333;" clip-path="url(#clipPath63)"/>
    <path id="path64" d="M 196.525 169.277 C 196.466 168.846 196.776 168.442 197.204 168.382 C 197.928 168.281 198.662 168.198 199.36 167.965 C 201.14 167.336 202.809 166.433 204.384 165.398 C 207.196 163.52 209.216 160.737 210.948 157.882 C 213.32 154.306 214.342 150.065 214.493 145.816 C 214.586 143.712 214.753 141.602 214.642 139.497 C 214.578 138.582 214.489 137.669 214.47 136.752 C 214.461 136.321 214.838 135.958 215.264 135.958 C 216.216 135.996 216.045 137.032 216.1 137.706 C 216.236 139.249 216.33 140.797 216.236 142.346 C 216.069 145.581 216.07 148.874 215.24 152.026 C 214.47 155.094 212.936 157.881 211.172 160.481 C 209.845 162.492 208.296 164.373 206.409 165.882 C 204.136 167.576 201.585 169.072 198.813 169.742 C 198.053 169.826 196.749 170.37 196.525 169.277" style="fill: rgb(53, 22, 26); fill-opacity: 1; fill-rule: evenodd; stroke: none; stroke-width: 1.333;" clip-path="url(#clipPath65)"/>
    <path id="path66" d="M 183.15 184.075 C 182.753 183.966 182.455 183.509 182.595 183.099 C 183.373 180.713 184.094 178.301 184.642 175.849 C 185.322 172.602 185.094 169.255 185.433 165.985 C 185.543 165.567 185.995 165.317 186.409 165.43 C 187.102 165.643 186.997 166.281 186.914 166.845 C 186.869 167.613 186.863 168.383 186.842 169.154 C 186.785 172.885 186.311 176.603 185.158 180.162 C 184.827 181.286 184.506 182.413 184.126 183.521 C 183.989 183.937 183.566 184.197 183.15 184.075" style="fill: rgb(53, 22, 26); fill-opacity: 1; fill-rule: evenodd; stroke: none; stroke-width: 1.333;" clip-path="url(#clipPath67)"/>
    <path id="path68" d="M 212.134 183.201 C 206.89 178.541 206.479 170.937 206.374 164.378 C 206.398 163.344 207.935 163.332 207.962 164.378 C 208.014 168.986 208.274 173.737 210.174 177.998 C 210.947 179.529 211.952 180.953 213.256 182.078 C 213.982 182.812 212.887 183.93 212.134 183.201" style="fill: rgb(53, 22, 26); fill-opacity: 1; fill-rule: evenodd; stroke: none; stroke-width: 1.333;" clip-path="url(#clipPath69)"/>
    <path id="path74" d="M 160.685 218.136 C 157.596 216.561 154.534 214.633 152.813 211.514 C 150.456 208.136 151.408 204.02 153.174 200.606 C 154.932 197.648 153.808 197.693 151.281 196.412 C 147.27 194.236 147.486 189.518 150.305 186.422 C 152.177 184.453 154.769 183.406 156.969 181.866 C 163.369 177.501 158.318 173.308 156.092 168.366 C 155.68 167.372 155.344 166.33 155.105 165.28 C 153.902 159.941 156.013 154.33 159.282 150.121 C 161.592 147.033 164.669 144.402 166.11 140.752 C 166.86 138.14 166.049 135.33 166.173 132.65 C 166.213 129.174 166.852 125.688 168.07 122.43 C 169.346 119.208 170.9 116.018 173.102 113.321 C 174.57 111.508 176.424 110.066 178.302 108.704 C 183.934 104.73 191.285 102.025 198.22 103.209 C 199.601 103.482 201.014 103.877 202.128 104.777 C 202.574 105.137 202.992 105.526 203.373 105.954 C 203.581 106.186 203.853 106.408 203.889 106.74 C 203.937 107.169 203.648 107.574 203.212 107.633 C 202.902 107.676 202.59 107.522 202.428 107.268 C 201.673 106.428 200.829 105.608 199.732 105.249 C 195.634 103.866 191.172 104.561 187.16 105.916 C 183.105 107.233 179.462 109.558 176.25 112.332 C 173.906 114.364 172.308 117.052 170.938 119.801 C 168.032 125.498 167.372 131.246 167.977 137.529 C 168.392 140.641 166.824 143.482 164.908 145.812 C 161.25 150.269 157.817 153.512 156.618 159.444 C 155.922 162.517 156.586 165.796 157.929 168.577 C 159.398 171.354 161.668 173.944 161.698 177.245 C 161.69 180.108 159.37 182.296 157.086 183.685 C 154.293 185.512 150.55 186.936 149.878 190.612 C 149.498 192.208 150.269 193.857 151.606 194.76 C 152.873 195.54 154.513 195.889 155.314 197.264 C 156.158 198.622 155.209 200.134 154.568 201.365 C 153.696 203.048 153.086 204.868 152.993 206.772 C 152.758 209.641 155.53 213.072 157.778 214.597 C 158.977 215.381 160.217 216.101 161.486 216.765 C 161.869 216.966 161.981 217.492 161.769 217.852 C 161.544 218.24 161.061 218.334 160.685 218.136" style="fill: rgb(53, 22, 26); fill-opacity: 1; fill-rule: evenodd; stroke: none; stroke-width: 1.333;" clip-path="url(#clipPath75)"/>
    <path id="path76" d="M 164.154 219.457 C 163.326 219.27 162.571 218.859 161.826 218.467 C 161.446 218.262 161.329 217.743 161.541 217.381 C 162.213 216.411 163.25 217.591 164.051 217.771 C 161.958 213.943 162.393 208.921 164.866 205.37 C 166.682 202.979 169.543 201.839 172.305 200.931 C 176.925 199.302 181.323 196.399 182.509 191.381 C 182.975 188.451 183.294 185.343 182.361 182.474 C 182.046 181.615 181.617 180.803 181.306 179.943 C 181.159 179.537 181.314 179.077 181.729 178.902 C 182.11 178.741 182.622 178.918 182.769 179.325 C 183.023 180.03 183.366 180.698 183.647 181.393 C 184.266 182.925 184.525 184.573 184.539 186.219 C 184.571 191.823 183.521 195.669 178.986 199.285 C 172.777 204.013 165.333 202.009 164.298 211.709 C 164.237 213.399 164.513 215.133 165.261 216.659 C 165.558 217.357 166.242 217.995 166.09 218.806 C 165.879 219.673 164.847 219.665 164.154 219.457" style="fill: rgb(53, 22, 26); fill-opacity: 1; fill-rule: evenodd; stroke: none; stroke-width: 1.333;" clip-path="url(#clipPath77)"/>
    <path id="path78" d="M 219.052 156.796 C 218.716 156.536 218.636 156.019 218.909 155.683 C 219.54 154.901 220.154 154.111 220.704 153.297 C 223.068 149.573 224.244 145.271 225.221 141.049 C 226.384 136.14 226.456 131.101 225.354 126.173 C 224.118 119.933 221.025 113.807 215.638 110.187 C 213.074 108.481 209.894 107.852 206.882 107.551 C 206.152 107.503 205.42 107.473 204.69 107.433 C 204.289 107.411 203.814 107.44 203.509 107.135 C 202.89 106.539 203.628 105.46 204.401 105.828 C 207.664 105.937 210.958 106.316 214.016 107.532 C 223.217 111.665 227.117 122.255 227.705 131.72 C 227.989 136.712 226.885 141.683 225.44 146.432 C 224.585 149.059 223.648 151.703 222.124 154.025 C 221.525 154.937 220.853 155.804 220.164 156.652 C 219.892 156.989 219.396 157.064 219.052 156.796" style="fill: rgb(53, 22, 26); fill-opacity: 1; fill-rule: evenodd; stroke: none; stroke-width: 1.333;" clip-path="url(#clipPath79)"/>
    <path id="path80" d="M 208.162 176.024 C 208.106 174.295 208.528 172.606 209.128 170.994 C 209.577 169.855 210.073 168.723 210.773 167.715 C 211.104 167.09 220.5 153.284 221.081 153.951 C 221.506 154.478 212.318 168.288 212.016 168.706 C 211.788 169.048 211.584 169.403 211.397 169.767 C 210.429 171.79 209.698 173.792 209.749 176.024 C 209.726 177.062 208.186 177.068 208.162 176.024" style="fill: rgb(53, 22, 26); fill-opacity: 1; fill-rule: evenodd; stroke: none; stroke-width: 1.333;" clip-path="url(#clipPath81)"/>
    <path id="path82" d="M 193.319 194.308 C 191.615 194.107 189.934 193.716 188.295 193.21 C 187.065 192.819 185.795 192.398 184.781 191.57 C 184.438 191.294 184.062 190.924 184.062 190.452 C 184.062 190.022 184.423 189.659 184.855 189.659 C 185.185 189.659 185.474 189.87 185.591 190.162 C 187.222 191.539 189.479 191.867 191.474 192.398 C 194.439 193.046 197.499 193.06 200.459 192.386 C 204.254 191.538 208.091 189.992 210.715 187.019 C 211.467 186.156 212.099 185.16 212.398 184.046 C 212.686 183.055 214.183 183.451 213.929 184.467 C 211.603 191.911 200.367 195.276 193.319 194.308" style="fill: rgb(53, 22, 26); fill-opacity: 1; fill-rule: evenodd; stroke: none; stroke-width: 1.333;" clip-path="url(#clipPath83)"/>
    <path id="path84" d="M 257.011 265.569 C 256.914 260.975 256.301 256.469 255.762 251.923 C 254.915 243.435 254.161 234.937 253.101 226.472 C 252.542 221 251.757 215.423 249.885 210.239 C 247.553 203.672 243.734 197.608 237.806 193.749 C 234.023 191.105 229.354 190.577 225.099 189.08 C 221.729 187.827 218.259 187.009 215.009 185.473 C 214.506 185.228 214.009 184.973 213.515 184.708 C 213.198 184.535 212.827 184.345 212.683 183.991 C 212.359 183.177 213.422 182.472 214.025 183.171 C 214.997 183.737 216.023 184.22 217.062 184.653 C 219.907 185.749 223.021 186.636 225.849 187.665 C 229.686 188.973 233.815 189.543 237.361 191.611 C 248.971 198.269 253.359 212.18 254.506 224.788 C 255.311 231.604 256.081 238.425 256.706 245.261 C 257.219 252.031 258.437 258.792 258.598 265.569 C 258.574 266.54 257.081 266.685 257.011 265.569" style="fill: rgb(53, 22, 26); fill-opacity: 1; fill-rule: evenodd; stroke: none; stroke-width: 1.333;" clip-path="url(#clipPath85)"/>
    <path id="path86" d="M 230.282 231.404 C 227.43 225.348 227.315 218.419 227.314 211.841 C 227.374 206.811 227.575 201.768 228.302 196.785 C 228.54 194.628 229.142 192.489 229.198 190.332 C 229.308 189.671 230.236 189.383 230.647 189.952 C 230.94 190.368 230.79 190.887 230.755 191.356 C 229.136 200.301 228.582 209.507 229.035 218.573 C 229.331 222.563 229.88 226.711 231.522 230.361 C 232.272 231.311 231.023 232.411 230.282 231.404" style="fill: rgb(53, 22, 26); fill-opacity: 1; fill-rule: evenodd; stroke: none; stroke-width: 1.333;" clip-path="url(#clipPath87)"/>
    <path id="path88" d="M 163.89 275.313 C 163.448 275.253 163.168 274.849 163.211 274.418 C 163.302 273.491 163.394 272.566 163.459 271.638 C 163.779 264.379 162.9 257.229 161.024 250.275 C 160.175 247.007 159.023 244.055 157.903 240.927 C 155.78 234.606 154.1 227.879 155.046 221.179 C 155.335 219.254 155.882 217.375 156.46 215.521 C 156.336 214.861 157.199 214.339 157.728 214.786 C 158.53 215.433 157.658 216.646 157.527 217.451 C 157.25 218.419 156.998 219.395 156.79 220.379 C 155.051 229.713 158.914 238.742 161.859 247.41 C 163.086 251.473 164.028 255.625 164.524 259.841 C 165.136 264.745 165.354 269.717 164.783 274.634 C 164.743 275.065 164.304 275.37 163.89 275.313" style="fill: rgb(53, 22, 26); fill-opacity: 1; fill-rule: evenodd; stroke: none; stroke-width: 1.333;" clip-path="url(#clipPath89)"/>
    <path id="path90" d="M 231.71 282.239 C 231.371 281.979 231.297 281.465 231.567 281.127 C 232.287 280.223 232.981 279.299 233.631 278.345 C 235.346 275.712 237.211 273.172 238.702 270.4 C 240.018 268.045 240.459 266.408 239.723 263.763 C 237.982 255.543 236.541 247.261 234.603 239.085 C 234.05 236.881 233.739 234.572 232.857 232.472 C 232.131 232.279 230.93 232.252 230.862 231.284 C 230.862 230.851 231.223 230.491 231.655 230.491 C 231.873 230.484 232.035 230.593 232.207 230.691 C 232.727 230.892 233.353 230.841 233.815 231.175 C 234.542 231.824 234.693 232.871 234.969 233.76 C 235.514 235.745 235.925 237.765 236.385 239.771 C 238.222 247.583 239.585 255.491 241.254 263.337 C 241.874 265.673 241.854 267.727 240.725 269.915 C 239.369 272.799 237.485 275.383 235.741 278.037 C 234.89 279.336 234.01 280.617 233.037 281.827 C 232.765 282.287 232.189 282.62 231.71 282.239" style="fill: rgb(53, 22, 26); fill-opacity: 1; fill-rule: evenodd; stroke: none; stroke-width: 1.333;" clip-path="url(#clipPath91)"/>
    <path id="path92" d="M 228.172 283.523 C 225.296 276.821 223.512 269.482 224.012 262.157 C 224.26 251.537 227.891 241.454 231.711 231.667 L 231.693 231.718 C 231.689 231.737 231.685 231.754 231.681 231.773 C 231.867 230.79 233.383 231.002 233.248 232.023 C 232.799 233.422 232.195 234.775 231.704 236.163 C 228.737 243.943 226.129 252.006 225.707 260.378 C 225.196 265.618 225.713 270.897 227.172 275.953 C 227.844 278.367 228.625 280.639 229.635 282.906 C 230.019 283.846 228.608 284.493 228.172 283.523" style="fill: rgb(53, 22, 26); fill-opacity: 1; fill-rule: evenodd; stroke: none; stroke-width: 1.333;" clip-path="url(#clipPath93)"/>
    <path id="path94" d="M 224.861 291.528 C 227.948 293.344 230.14 296.35 231.454 299.638 C 233.981 297.906 236.508 296.156 238.872 294.206 C 239.421 293.682 240.101 293.196 240.414 292.487 C 239.841 289.503 237.721 287.458 235.262 285.878 C 233.958 285.092 232.625 284.035 231.293 283.38 C 231.238 283.771 230.873 283.95 230.581 284.152 C 229.624 284.8 228.692 285.482 227.758 286.164 C 226.098 287.458 224.15 288.603 222.977 290.382 C 223.584 290.796 224.237 291.142 224.861 291.528 M 230.512 301.084 C 229.898 300.396 229.713 299.438 229.261 298.647 C 228.441 297.016 227.33 295.528 225.978 294.299 C 225 293.435 223.87 292.776 222.749 292.118 C 221.802 291.612 221.089 290.978 221.488 289.816 C 222.32 288.151 223.99 287.078 225.402 285.934 C 226.942 284.77 228.506 283.635 230.109 282.559 C 230.333 282.41 230.617 282.418 230.85 282.531 C 230.893 282.283 231.066 282.044 231.284 281.955 C 231.974 281.628 232.61 282.287 233.165 282.627 C 234.504 283.527 235.904 284.334 237.198 285.299 C 239.554 286.9 241.372 289.294 241.962 292.106 C 242.214 293.639 240.67 294.678 239.681 295.598 C 237.4 297.478 234.949 299.148 232.521 300.832 C 231.961 301.258 231.11 301.662 230.512 301.084" style="fill: rgb(53, 22, 26); fill-opacity: 1; fill-rule: evenodd; stroke: none; stroke-width: 1.333;" clip-path="url(#clipPath95)"/>
    <path id="path96" d="M 240.668 291.323 C 240.668 290.985 240.886 290.692 241.188 290.579 C 241.677 290.209 242.144 289.815 242.617 289.424 C 244.365 288.001 245.994 286.44 247.65 284.913 C 252.161 280.745 257.126 276.636 257.224 269.991 C 257.324 268.393 257.314 266.797 257.286 265.199 C 257.28 264.767 257.654 264.405 258.081 264.405 C 258.518 264.405 258.866 264.767 258.874 265.199 C 258.908 268.371 258.985 271.635 257.99 274.685 C 256.334 279.295 252.465 282.6 248.977 285.848 C 247.146 287.548 245.332 289.265 243.392 290.843 C 242.765 291.268 242.246 292.02 241.461 292.116 C 241.029 292.116 240.668 291.756 240.668 291.323" style="fill: rgb(53, 22, 26); fill-opacity: 1; fill-rule: evenodd; stroke: none; stroke-width: 1.333;" clip-path="url(#clipPath97)"/>
    <path id="path98" d="M 158.366 293.289 C 156.616 292.221 154.805 291.25 152.997 290.281 C 151.266 289.339 149.664 288.191 147.95 287.218 C 144.514 285.255 141.076 283.229 138.009 280.713 C 135.85 278.798 134.03 276.355 133.24 273.551 C 132.05 268.77 132.866 263.779 133.545 258.978 C 134.468 252.703 135.616 246.47 137.005 240.283 C 137.842 236.326 138.481 232.33 139.352 228.379 C 140.401 223.451 141.464 218.527 142.913 213.698 C 144.16 208.803 145.598 203.874 148.162 199.487 C 148.86 198.295 151.384 194.771 152.64 195.199 C 153.02 195.359 153.256 195.851 153.062 196.239 C 152.808 196.706 152.262 196.909 151.894 197.277 C 151.157 197.955 150.56 198.763 149.98 199.577 C 146.289 205.391 145.041 212.277 143.138 218.794 C 141.682 224.718 140.45 230.695 139.336 236.691 C 138.285 242.322 136.853 247.881 136.016 253.55 C 135.222 258.95 134.032 264.361 134.265 269.845 C 134.402 273.761 136.141 276.979 139.07 279.537 C 143.474 283.114 148.553 285.589 153.304 288.635 C 155.262 289.719 157.26 290.741 159.168 291.918 C 159.538 292.142 159.673 292.626 159.453 293.003 C 159.236 293.374 158.733 293.511 158.366 293.289" style="fill: rgb(53, 22, 26); fill-opacity: 1; fill-rule: evenodd; stroke: none; stroke-width: 1.333;" clip-path="url(#clipPath99)"/>
    <path id="path100" d="M 169.341 285.259 C 164.207 280.173 158.854 275.311 153.586 270.367 C 152.593 269.298 151.137 268.29 150.981 266.737 C 151.089 265.73 151.614 264.805 151.894 263.834 C 153.657 258.857 155.491 253.905 157.218 248.914 C 157.742 247.325 158.205 245.71 158.423 244.046 C 158.487 243.582 158.567 243.115 158.594 242.646 C 158.527 242.35 158.631 242.026 158.885 241.833 C 159.227 241.569 159.733 241.638 159.997 241.981 C 160.386 242.598 160.067 243.385 160.025 244.062 C 159.722 246.482 158.962 248.809 158.127 251.091 C 156.353 256.223 154.446 261.307 152.657 266.433 C 152.419 266.906 152.894 267.306 153.158 267.658 C 154.234 268.845 155.417 269.934 156.593 271.018 C 160.189 274.275 163.665 277.659 167.225 280.955 C 168.317 281.999 169.369 283.087 170.459 284.133 C 170.771 284.433 170.763 284.954 170.463 285.255 C 170.154 285.566 169.653 285.559 169.341 285.259" style="fill: rgb(53, 22, 26); fill-opacity: 1; fill-rule: evenodd; stroke: none; stroke-width: 1.333;" clip-path="url(#clipPath101)"/>
    <path id="path102" d="M 195.597 311.543 C 193.792 307.243 191.191 303.411 188.768 299.459 C 185.215 293.717 181.339 290.515 175.189 287.793 C 173.741 287.078 172.288 286.383 170.821 285.706 C 170.089 285.351 168.571 284.782 169.32 283.762 C 169.708 283.33 170.263 283.502 170.645 283.838 C 171.299 284.205 171.992 284.506 172.671 284.821 C 180.457 288.426 185.028 290.629 189.809 298.15 C 191.977 301.545 194.093 304.987 195.991 308.542 C 196.315 309.181 196.591 309.841 196.875 310.498 C 197.147 310.967 197.243 311.645 196.655 311.918 C 196.277 312.099 195.769 311.941 195.597 311.543" style="fill: rgb(53, 22, 26); fill-opacity: 1; fill-rule: evenodd; stroke: none; stroke-width: 1.333;" clip-path="url(#clipPath103)"/>
    <path id="path104" d="M 196.138 313.651 C 195.606 313.582 195.148 313.229 194.745 312.898 C 193.592 311.935 192.64 310.766 191.689 309.613 C 189.668 307.127 187.402 304.847 185.365 302.387 C 184.812 301.511 186.089 300.658 186.694 301.515 C 187.729 302.855 188.996 303.999 190.07 305.306 C 191.714 307.121 193.213 309.066 194.88 310.859 C 195.3 311.273 195.72 311.693 196.216 312.013 C 196.63 312.158 197.05 312.413 196.997 312.927 C 196.962 313.346 196.562 313.707 196.138 313.651" style="fill: rgb(53, 22, 26); fill-opacity: 1; fill-rule: evenodd; stroke: none; stroke-width: 1.333;" clip-path="url(#clipPath105)"/>
    <path id="path106" d="M 194.715 315.627 C 193.035 315.329 191.852 313.855 190.576 312.831 C 188.442 310.951 186.63 308.754 184.675 306.697 C 184.266 306.29 183.854 305.882 183.402 305.521 C 182.996 305.279 182.819 304.754 183.098 304.349 C 183.335 303.998 183.85 303.886 184.2 304.138 C 186.343 305.835 188.084 308.225 189.996 310.095 C 191.466 311.465 192.882 312.997 194.642 313.989 C 194.88 313.787 195.236 313.738 195.52 313.881 C 196.492 314.434 195.643 315.749 194.715 315.627" style="fill: rgb(53, 22, 26); fill-opacity: 1; fill-rule: evenodd; stroke: none; stroke-width: 1.333;" clip-path="url(#clipPath107)"/>
    <path id="path108" d="M 191.89 316.043 C 187.666 315.468 184.862 311.833 181.774 309.252 C 181.38 308.92 180.964 308.617 180.571 308.285 C 179.81 307.583 180.822 306.427 181.626 307.099 C 183.802 308.763 185.787 310.927 187.94 312.541 C 188.89 313.329 189.96 313.959 191.16 314.28 C 192.023 314.531 192.922 314.56 193.81 314.443 C 194.24 314.403 194.619 314.784 194.638 315.2 C 194.638 316.412 192.695 316.075 191.89 316.043" style="fill: rgb(53, 22, 26); fill-opacity: 1; fill-rule: evenodd; stroke: none; stroke-width: 1.333;" clip-path="url(#clipPath109)"/>
    <path id="path110" d="M 190.822 317.13 C 188.828 317.045 186.925 316.345 185.128 315.543 C 182.418 314.413 180.034 312.542 177.945 310.514 C 177.4 309.682 178.613 308.823 179.214 309.565 C 180.616 310.875 182.157 312.067 183.769 313.111 C 186.47 314.567 189.376 315.751 192.465 315.594 C 193.501 315.571 193.58 317.109 192.537 317.179 C 191.964 317.203 191.393 317.174 190.822 317.13" style="fill: rgb(53, 22, 26); fill-opacity: 1; fill-rule: evenodd; stroke: none; stroke-width: 1.333;" clip-path="url(#clipPath111)"/>
    <path id="path112" d="M 178.666 311.261 C 177.337 310.433 175.822 309.953 174.446 309.205 C 172.337 308.061 170.401 306.605 168.557 305.076 C 164.412 301.701 160.269 298.081 157.833 293.227 C 157.634 292.841 157.826 292.351 158.209 292.168 C 158.922 291.848 159.294 292.528 159.55 293.076 C 161.533 296.684 164.461 299.623 167.617 302.204 C 169.209 303.551 170.78 304.928 172.502 306.111 C 174.608 307.769 177.106 308.565 179.401 309.855 C 180.293 310.356 179.6 311.707 178.666 311.261" style="fill: rgb(53, 22, 26); fill-opacity: 1; fill-rule: evenodd; stroke: none; stroke-width: 1.333;" clip-path="url(#clipPath113)"/>
    <path id="path114" d="M 163.864 276.985 C 163.772 276.896 163.648 276.823 163.52 276.803 C 163.649 276.837 163.768 276.901 163.864 276.985 M 163.294 278.36 C 162.414 278.261 162.397 277.361 162.644 276.693 C 162.792 276.067 162.938 275.44 163.048 274.804 C 163.121 274.377 163.553 274.092 163.974 274.169 C 165.206 274.479 164.278 276.196 164.192 277.037 C 164.133 277.228 164.1 277.404 164.125 277.605 C 164.106 278.023 163.722 278.403 163.294 278.36" style="fill: rgb(53, 22, 26); fill-opacity: 1; fill-rule: evenodd; stroke: none; stroke-width: 1.333;" clip-path="url(#clipPath115)"/>
    <path id="path116" d="M 197.244 317.063 C 196.828 316.985 196.518 316.561 196.609 316.137 C 197.317 313.044 198.67 310.137 200.016 307.277 C 203.406 299.655 210.848 295.051 218.149 291.676 C 219.161 291.209 220.162 290.709 221.13 290.153 C 221.725 289.711 222.577 289.637 222.733 290.545 C 222.794 291.296 221.928 291.459 221.437 291.8 C 219.689 292.788 217.817 293.524 216.038 294.449 C 207.322 299.104 203.141 302.832 199.572 312.167 C 199.07 313.417 198.61 314.687 198.27 315.991 C 198.201 316.547 197.91 317.191 197.244 317.063" style="fill: rgb(53, 22, 26); fill-opacity: 1; fill-rule: evenodd; stroke: none; stroke-width: 1.333;" clip-path="url(#clipPath117)"/>
    <path id="path118" d="M 203.632 319.676 C 202.884 318.737 204.015 317.677 204.544 316.923 C 206.023 315.052 207.627 313.271 209.387 311.659 C 210.639 310.508 211.956 309.433 213.291 308.38 C 213.834 307.957 214.678 308.512 214.526 309.176 C 214.442 309.623 213.983 309.819 213.674 310.099 C 212.799 310.801 211.924 311.507 211.09 312.256 C 209.23 313.928 207.499 315.743 205.946 317.704 C 208.654 316.375 211.21 314.76 213.879 313.356 C 216.456 311.96 219.188 310.727 221.704 309.252 C 225.686 306.999 227.51 304.101 229.955 300.427 C 230.366 299.885 231.32 300.199 231.351 300.871 C 231.374 301.115 231.271 301.328 231.12 301.512 C 230.243 302.765 229.464 304.087 228.526 305.297 C 225.675 309.343 221.103 311.464 216.808 313.62 C 213.939 315.057 211.178 316.689 208.368 318.236 C 207.411 318.675 204.384 320.635 203.632 319.676" style="fill: rgb(53, 22, 26); fill-opacity: 1; fill-rule: evenodd; stroke: none; stroke-width: 1.333;" clip-path="url(#clipPath119)"/>
    <path id="path120" d="M 202.313 319.319 C 201.367 318.031 203.223 315.493 203.832 314.26 C 205.693 310.845 208.253 307.912 210.952 305.14 C 211.648 304.373 212.825 305.363 212.16 306.169 C 208.748 309.653 205.555 313.536 203.705 318.08 C 204.775 317.96 204.955 319.552 203.893 319.66 C 203.353 319.697 202.707 319.779 202.313 319.319" style="fill: rgb(53, 22, 26); fill-opacity: 1; fill-rule: evenodd; stroke: none; stroke-width: 1.333;" clip-path="url(#clipPath121)"/>
    <path id="path122" d="M 199.214 318.614 C 198.151 317.253 200.031 313.52 200.876 312.236 C 202.874 309.164 205.076 306.205 207.794 303.728 C 208.575 303.045 209.614 304.178 208.862 304.902 C 208.267 305.474 207.678 306.053 207.103 306.645 C 205.646 308.15 204.438 309.87 203.23 311.577 C 202.164 313.104 201.112 314.698 200.663 316.529 C 203.916 313.028 206.598 308.982 210.123 305.738 C 210.987 305.166 211.874 306.42 211.032 307.041 C 209.003 308.973 207.279 311.172 205.467 313.301 C 204.22 314.841 202.998 316.409 201.61 317.828 C 201.019 318.446 200.036 319.462 199.214 318.614" style="fill: rgb(53, 22, 26); fill-opacity: 1; fill-rule: evenodd; stroke: none; stroke-width: 1.333;" clip-path="url(#clipPath123)"/>
    <path id="path124" d="M 197.274 317.135 C 196.95 316.86 196.894 316.339 197.184 316.016 C 197.718 315.516 198.53 314.428 199.284 315.175 C 199.95 315.996 198.91 316.502 198.414 317.022 C 198.129 317.363 197.616 317.428 197.274 317.135" style="fill: rgb(53, 22, 26); fill-opacity: 1; fill-rule: evenodd; stroke: none; stroke-width: 1.333;" clip-path="url(#clipPath125)"/>
    <path id="path126" d="M 117.782 582.183 C 117.349 582.125 117.052 581.718 117.104 581.289 C 117.414 578.721 117.792 576.162 118.113 573.597 C 119.656 559.397 121.392 545.214 123.606 531.102 C 125.552 519.389 127.386 507.661 129.049 495.903 C 130.308 486.955 131.98 478.075 133.48 469.166 C 135.324 457.553 136.817 445.886 138.388 434.233 C 140.02 420.538 142.697 406.966 143.742 393.205 C 144.576 378.918 143.865 364.589 144.148 350.287 C 144.645 336.287 144.92 321.93 149.665 308.594 C 151.289 303.957 153.336 299.455 155.801 295.205 C 156.297 294.362 156.825 293.535 157.374 292.725 C 157.464 292.594 157.545 292.449 157.66 292.337 C 157.98 292.026 158.461 292.042 158.782 292.337 C 159.129 292.669 159.073 293.239 158.744 293.53 C 157.457 295.433 156.317 297.422 155.328 299.379 C 153.825 302.369 152.393 305.619 151.294 308.73 C 146.18 323.099 146.093 338.606 145.673 353.683 C 145.698 362.149 145.726 370.617 145.705 379.082 C 145.828 387.986 145.256 396.885 144.025 405.705 C 141.425 422.938 139.232 440.231 136.825 457.494 C 135.286 469.194 132.938 480.759 131.173 492.422 C 128.736 510.074 125.608 527.621 123.141 545.269 C 121.912 554.31 120.81 563.371 119.848 572.445 C 119.506 575.473 119.041 578.482 118.676 581.505 C 118.625 581.934 118.201 582.243 117.782 582.183" style="fill: rgb(53, 22, 26); fill-opacity: 1; fill-rule: evenodd; stroke: none; stroke-width: 1.333;" clip-path="url(#clipPath127)"/>
    <path id="path128" d="M 271.452 577.513 C 268.601 562.851 265.247 548.294 262.377 533.637 C 255.347 497.107 249.019 460.44 243.748 423.614 C 241.979 411.933 240.169 400.228 239.701 388.406 C 239.335 374.302 239.332 360.186 239.257 346.078 C 239.233 338.736 238.992 331.4 238.597 324.069 C 237.905 315.852 237.009 307.374 233.352 299.874 C 233.397 299.945 233.441 300.01 233.509 300.06 C 233.239 299.808 233.148 299.406 233.347 299.068 C 233.557 298.706 234.069 298.548 234.433 298.784 C 234.984 299.237 235.141 300.026 235.461 300.642 C 238.183 306.82 239.128 313.581 239.871 320.238 C 240.589 328.492 240.743 336.792 240.839 345.076 C 240.853 353.314 240.873 361.554 241.024 369.792 C 241.111 377.454 241.004 385.124 241.52 392.774 C 242.827 410.422 246.169 427.838 248.572 445.354 C 253.435 476.601 258.92 507.759 265.023 538.787 C 267.507 551.141 270.327 563.417 272.712 575.783 C 272.771 576.43 273.173 577.082 272.903 577.702 C 272.593 578.287 271.591 578.178 271.452 577.513" style="fill: rgb(53, 22, 26); fill-opacity: 1; fill-rule: evenodd; stroke: none; stroke-width: 1.333;" clip-path="url(#clipPath129)"/>
    <path id="path130" d="M 209.275 592.841 C 203.71 592.774 198.212 591.741 192.796 590.529 C 189.546 589.735 186.332 588.919 182.994 588.685 C 178.26 588.367 173.502 588.449 168.79 589.001 C 154.858 590.338 136.684 594.297 123.818 587.666 C 121.484 586.366 118.984 584.981 117.483 582.701 C 117.234 582.569 117.066 582.279 117.075 581.995 C 117.088 581.369 117.826 580.99 118.364 581.315 C 118.774 581.582 118.924 582.11 119.255 582.459 C 121.088 584.451 123.539 585.794 125.966 586.935 C 130.854 589.162 136.275 589.703 141.59 589.766 C 154.402 590.031 166.976 586.582 179.782 586.946 C 182.52 587.006 185.46 587.241 188.102 587.795 C 190.156 588.249 192.191 588.771 194.23 589.229 C 199.792 590.438 205.448 591.373 211.159 591.263 C 213.571 591.211 215.987 591.075 218.367 590.662 C 223.055 589.802 227.572 588.221 232.23 587.227 C 236.888 586.231 241.639 585.673 246.4 585.522 C 253.227 585.307 260.295 586.554 266.919 584.45 C 269.151 583.63 272.075 582.446 272.334 579.751 C 272.414 579.107 272.202 578.461 271.786 577.969 C 271.171 577.118 272.44 576.203 273.063 577.026 C 274.504 578.766 274.015 581.431 272.552 583.006 C 268.2 587.107 261.043 587.387 255.371 587.255 C 247.024 586.821 238.582 587.191 230.46 589.263 C 225.798 590.419 221.207 591.989 216.416 592.541 C 214.046 592.783 211.658 592.895 209.275 592.841" style="fill: rgb(53, 22, 26); fill-opacity: 1; fill-rule: evenodd; stroke: none; stroke-width: 1.333;" clip-path="url(#clipPath131)"/>
    <path id="path132" d="M 251.341 584.299 C 248.797 573.594 245.937 562.961 243.604 552.206 C 239.315 532.477 235.611 512.621 232.399 492.687 C 230.401 480.299 227.399 468.089 225.664 455.658 C 225.485 454.391 225.336 453.119 225.091 451.882 C 224.935 451.437 225.115 450.87 225.613 450.75 C 226.008 450.641 226.501 450.881 226.589 451.305 C 226.871 452.661 227.04 454.035 227.231 455.405 C 228.556 465.257 230.844 474.943 232.593 484.722 C 236.487 507.474 240.329 530.245 245.352 552.782 C 247.084 560.793 249.189 568.717 251.12 576.681 C 251.715 579.077 252.261 581.486 252.871 583.878 C 252.979 584.295 252.74 584.737 252.317 584.854 C 251.911 584.966 251.447 584.719 251.341 584.299" style="fill: rgb(53, 22, 26); fill-opacity: 1; fill-rule: evenodd; stroke: none; stroke-width: 1.333;" clip-path="url(#clipPath133)"/>
    <path id="path134" d="M 233.39 587.639 C 232.704 582.611 231.99 577.56 230.89 572.61 C 230.896 572.636 230.902 572.664 230.906 572.691 C 228.326 560.344 225.681 548.022 224.113 535.498 C 223.993 534.484 225.516 534.236 225.685 535.282 C 227.454 549.626 230.757 563.699 233.549 577.859 C 234.11 581.034 234.492 584.235 234.964 587.423 C 235.086 588.432 233.565 588.688 233.39 587.639" style="fill: rgb(53, 22, 26); fill-opacity: 1; fill-rule: evenodd; stroke: none; stroke-width: 1.333;" clip-path="url(#clipPath135)"/>
    <path id="path136" d="M 154.974 497.789 C 154.534 497.729 154.252 497.325 154.294 496.894 C 154.576 494.149 154.89 491.405 155.2 488.662 C 156.421 477.402 158.18 466.198 158.94 454.89 C 159.845 443.786 160.393 432.649 161.569 421.567 C 162.497 413.067 163.826 404.621 164.78 396.125 C 165.678 388.51 166.157 380.855 166.886 373.223 C 167.113 371.137 167.417 369.057 167.73 366.982 C 167.796 366.554 168.193 366.243 168.625 366.303 C 169.049 366.361 169.368 366.769 169.304 367.198 C 168.897 369.894 168.512 372.597 168.269 375.317 C 167.598 383.651 166.924 391.989 165.889 400.29 C 164.452 411.474 162.788 422.635 162.068 433.897 C 161.45 442.295 160.868 450.697 160.2 459.091 C 159.29 469.638 157.685 480.109 156.576 490.637 C 156.333 492.794 156.088 494.95 155.868 497.11 C 155.824 497.541 155.389 497.846 154.974 497.789" style="fill: rgb(53, 22, 26); fill-opacity: 1; fill-rule: evenodd; stroke: none; stroke-width: 1.333;" clip-path="url(#clipPath137)"/>
    <path id="path138" d="M 166.006 540.104 C 165.562 540.043 165.29 539.64 165.327 539.209 C 165.671 535.217 166.003 531.221 166.333 527.227 C 167.098 517.111 168.181 507.021 168.877 496.899 C 169.473 488.733 169.357 480.541 169.686 472.365 C 170.075 463.252 170.89 454.237 171.433 445.192 C 171.487 444.52 172.461 444.26 172.847 444.815 C 172.982 444.989 173.021 445.191 173.006 445.408 C 172.931 446.432 172.865 447.455 172.802 448.376 C 172.483 453.473 172.159 458.355 171.773 463.396 C 171.085 472.149 171.094 480.935 170.841 489.707 C 170.383 501.913 168.905 514.053 168.006 526.231 C 167.671 530.295 167.331 534.356 166.987 538.419 C 166.915 539.144 167.026 540.172 166.006 540.104" style="fill: rgb(53, 22, 26); fill-opacity: 1; fill-rule: evenodd; stroke: none; stroke-width: 1.333;" clip-path="url(#clipPath139)"/>
    <path id="path140" d="M 184.7 144.659 C 182.245 143.441 183.349 138.627 186.327 139.679 C 187.328 140.153 187.765 141.506 187.377 142.514 C 187.387 143.797 186.023 145.291 184.7 144.659" style="fill: rgb(53, 22, 26); fill-opacity: 1; fill-rule: evenodd; stroke: none; stroke-width: 1.333;" clip-path="url(#clipPath141)"/>
    <path id="path142" d="M 205.933 144.673 C 203.613 143.673 204.808 138.548 207.502 140.061 C 208.426 140.516 208.761 141.69 208.52 142.644 C 208.604 144.062 207.358 145.409 205.933 144.673" style="fill: rgb(53, 22, 26); fill-opacity: 1; fill-rule: evenodd; stroke: none; stroke-width: 1.333;" clip-path="url(#clipPath143)"/>
    <path id="path144" d="M 206.934 142.752 C 207.177 142.486 207.24 142.061 207.12 141.726 C 207.05 141.836 206.956 141.926 206.844 141.992 C 206.761 142.208 206.733 142.454 206.802 142.677 C 206.842 142.701 206.884 142.725 206.925 142.748 C 206.929 142.749 206.932 142.75 206.934 142.752 M 207.028 144.358 C 205.109 144.372 204.597 141.873 205.85 140.713 C 206.234 139.804 207.712 139.752 208.25 140.553 C 209.268 141.726 208.725 144.213 207.028 144.358" style="fill: rgb(53, 22, 26); fill-opacity: 1; fill-rule: evenodd; stroke: none; stroke-width: 1.333;" clip-path="url(#clipPath145)"/>
    <path id="path146" d="M 206.498 140.976 C 205.824 140.453 206.327 139.436 207.138 139.524 C 207.951 139.54 208.775 139.572 209.574 139.376 C 210.588 139.132 210.992 140.612 209.996 140.908 C 209.078 141.136 208.13 141.144 207.19 141.109 C 206.952 141.17 206.702 141.124 206.498 140.976" style="fill: rgb(53, 22, 26); fill-opacity: 1; fill-rule: evenodd; stroke: none; stroke-width: 1.333;" clip-path="url(#clipPath147)"/>
    <path id="path148" d="M 185.209 140.785 C 184.503 140.755 183.792 140.731 183.1 140.576 C 182.424 140.517 182.183 139.548 182.729 139.163 C 182.985 138.963 183.315 138.972 183.609 139.069 C 184.137 139.16 184.675 139.175 185.209 139.199 C 186.252 139.231 186.249 140.768 185.209 140.785" style="fill: rgb(53, 22, 26); fill-opacity: 1; fill-rule: evenodd; stroke: none; stroke-width: 1.333;" clip-path="url(#clipPath149)"/>
    <path id="path150" d="M 202.057 136.704 C 202.112 135.927 203.016 135.66 203.606 135.36 C 205.994 134.283 208.792 134.192 211.286 134.949 C 212.28 135.259 211.874 136.741 210.865 136.481 C 209.678 136.079 208.404 136.015 207.16 136.068 C 205.998 136.149 204.872 136.487 203.832 137.003 C 203.482 137.141 203.258 137.507 202.85 137.497 C 202.418 137.497 202.057 137.137 202.057 136.704" style="fill: rgb(53, 22, 26); fill-opacity: 1; fill-rule: evenodd; stroke: none; stroke-width: 1.333;" clip-path="url(#clipPath151)"/>
    <path id="path152" d="M 189.584 136.974 C 187.891 136.43 186.052 136.114 184.295 136.518 C 183.758 136.632 183.234 136.777 182.715 136.957 C 182.062 137.178 181.45 136.364 181.818 135.792 C 181.927 135.605 182.092 135.497 182.292 135.426 C 184.646 134.532 187.226 134.589 189.615 135.314 C 190.16 135.432 190.735 135.774 190.56 136.42 C 190.448 136.836 189.992 137.093 189.584 136.974" style="fill: rgb(53, 22, 26); fill-opacity: 1; fill-rule: evenodd; stroke: none; stroke-width: 1.333;" clip-path="url(#clipPath153)"/>
    <path id="path154" d="M 194.649 151.267 C 192.962 150.719 192.346 149.684 193.133 148.025 C 193.714 146.604 194.189 145.128 194.274 143.585 C 194.322 142.832 194.329 142.079 194.365 141.325 C 194.386 140.895 194.71 140.532 195.158 140.532 C 195.575 140.532 195.973 140.893 195.953 141.325 C 195.887 142.641 195.919 143.969 195.657 145.268 C 195.437 146.693 194.766 147.983 194.377 149.355 C 194.899 149.807 195.615 149.889 196.278 149.805 C 197.315 149.697 197.522 151.219 196.494 151.379 C 195.875 151.44 195.254 151.44 194.649 151.267" style="fill: rgb(53, 22, 26); fill-opacity: 1; fill-rule: evenodd; stroke: none; stroke-width: 1.333;" clip-path="url(#clipPath155)"/>
    <path id="path156" d="M 193.78 158.297 C 192.728 158.069 191.684 157.725 190.713 157.266 C 189.828 156.715 190.605 155.387 191.514 155.895 C 193.004 156.558 194.608 156.994 196.249 156.805 C 197.674 156.766 198.98 156.174 200.241 155.559 C 200.632 155.375 201.117 155.595 201.28 155.982 C 201.454 156.393 201.249 156.837 200.858 157.022 C 200.164 157.35 199.472 157.686 198.745 157.935 C 197.161 158.457 195.424 158.547 193.78 158.297" style="fill: rgb(53, 22, 26); fill-opacity: 1; fill-rule: evenodd; stroke: none; stroke-width: 1.333;" clip-path="url(#clipPath157)"/>
    <path id="path158" d="M 182.544 140.584 C 182.249 140.538 181.955 140.487 181.729 140.274 C 181.133 139.704 181.781 138.678 182.544 138.966 L 182.537 138.964 C 183.735 139.023 183.741 140.638 182.544 140.584" style="fill: rgb(53, 22, 26); fill-opacity: 1; fill-rule: evenodd; stroke: none; stroke-width: 1.333;" clip-path="url(#clipPath159)"/>
    <path id="path160" d="M 191.695 116.92 C 191.53 116.53 191.716 116.038 192.118 115.88 C 192.944 115.555 193.792 115.291 194.643 115.039 C 196.939 114.316 199.483 114.364 201.772 115.096 C 204.586 115.936 202.144 118.523 201.427 116.662 C 199.275 115.908 196.852 115.942 194.699 116.679 C 194.036 116.876 193.38 117.09 192.735 117.342 C 192.342 117.5 191.867 117.33 191.695 116.92" style="fill: rgb(53, 22, 26); fill-opacity: 1; fill-rule: evenodd; stroke: none; stroke-width: 1.333;" clip-path="url(#clipPath161)"/>
    <path id="path162" d="M 202.084 112.89 C 201.326 112.512 200.288 112.403 199.483 112.351 C 198.772 112.308 198.062 112.276 197.348 112.278 C 196.916 112.278 196.555 111.915 196.555 111.483 C 196.555 111.05 196.916 110.69 197.348 110.69 C 198.402 110.687 199.456 110.743 200.504 110.848 C 201.382 110.992 202.332 111.118 203.074 111.644 C 203.983 112.323 202.934 113.651 202.084 112.89" style="fill: rgb(53, 22, 26); fill-opacity: 1; fill-rule: evenodd; stroke: none; stroke-width: 1.333;" clip-path="url(#clipPath163)"/>
    <path id="path164" d="M 218.574 152.528 C 218.183 152.362 217.975 151.883 218.152 151.488 C 218.411 150.91 218.644 150.326 218.856 149.728 C 219.11 148.959 219.323 148.175 219.49 147.383 C 220.374 142.303 220.695 136.744 218.532 131.938 C 218.199 131.444 218.102 130.758 218.743 130.471 C 219.152 130.296 219.603 130.5 219.784 130.891 C 222.294 135.979 222.026 142.14 221.062 147.599 C 220.77 149.154 220.27 150.667 219.615 152.106 C 219.438 152.504 218.967 152.699 218.574 152.528" style="fill: rgb(53, 22, 26); fill-opacity: 1; fill-rule: evenodd; stroke: none; stroke-width: 1.333;" clip-path="url(#clipPath165)"/>
    <path id="path166" d="M 153.61 200.336 C 153.794 198.317 156.318 195.866 157.832 194.605 C 160.544 192.673 163.676 190.872 164.819 187.533 C 165.236 186.586 166.659 187.172 166.282 188.152 C 165.422 190.485 163.688 192.392 161.702 193.841 C 160.588 194.642 159.399 195.336 158.355 196.232 C 157.108 197.385 155.848 198.669 155.196 200.26 C 155.268 201.344 153.652 201.43 153.61 200.336" style="fill: rgb(53, 22, 26); fill-opacity: 1; fill-rule: evenodd; stroke: none; stroke-width: 1.333;" clip-path="url(#clipPath167)"/>
    <path id="path168" d="M 165.952 184.631 C 165.663 184.351 165.695 183.981 165.817 183.649 C 166.009 182.391 165.871 181.105 165.735 179.849 C 165.619 178.814 167.144 178.603 167.307 179.633 C 167.399 180.659 168.167 186.022 165.952 184.631" style="fill: rgb(53, 22, 26); fill-opacity: 1; fill-rule: evenodd; stroke: none; stroke-width: 1.333;" clip-path="url(#clipPath169)"/>
    <path id="path170" d="M 161.443 216.713 C 158.062 211.893 159.434 205.115 162.762 200.629 C 163.008 200.274 163.544 200.231 163.874 200.485 C 164.538 201.014 163.947 201.73 163.576 202.233 C 161.42 205.503 160.395 209.775 161.606 213.578 C 161.868 214.347 162.22 215.083 162.699 215.742 C 163.31 216.583 162.094 217.529 161.443 216.713" style="fill: rgb(53, 22, 26); fill-opacity: 1; fill-rule: evenodd; stroke: none; stroke-width: 1.333;" clip-path="url(#clipPath171)"/>
    <path id="path172" d="M 166.226 198.385 C 166.017 198.025 166.128 197.497 166.512 197.298 C 167.154 196.99 168.198 196.28 168.644 197.217 C 168.957 198.106 168.072 198.302 167.458 198.594 C 167.057 198.857 166.492 198.842 166.226 198.385" style="fill: rgb(53, 22, 26); fill-opacity: 1; fill-rule: evenodd; stroke: none; stroke-width: 1.333;" clip-path="url(#clipPath173)"/>
    <path id="path196" d="M 145.282 266.374 C 145.191 265.329 146.528 265.383 147.246 265.243 C 148.891 265.095 150.584 265.041 152.194 265.47 C 152.612 265.582 152.863 266.031 152.748 266.446 C 152.558 267.106 151.882 267.085 151.346 266.897 C 149.827 266.633 148.254 266.683 146.734 266.926 C 146.114 267.13 145.444 267.155 145.282 266.374" style="fill: rgb(53, 22, 26); fill-opacity: 1; fill-rule: evenodd; stroke: none; stroke-width: 1.333;" clip-path="url(#clipPath197)"/>
    <path id="path198" d="M 240.462 266.776 C 240.462 266.344 240.823 265.983 241.255 265.983 C 241.878 265.964 242.5 265.914 243.126 265.91 C 243.976 265.894 244.828 265.894 245.678 265.951 C 246.104 265.952 246.479 266.311 246.471 266.744 C 246.471 267.155 246.11 267.567 245.678 267.538 C 244.846 267.482 244.011 267.48 243.178 267.496 C 242.327 267.386 240.552 268.07 240.462 266.776" style="fill: rgb(53, 22, 26); fill-opacity: 1; fill-rule: evenodd; stroke: none; stroke-width: 1.333;" clip-path="url(#clipPath199)"/>
  </g>
</svg>